<?xml version="1.0" encoding="utf-8"?>
<svg width="287.67pt" height="212.6pt" version="1.1" viewBox="0 0 359.59 265.75" xmlns="http://www.w3.org/2000/svg" xmlns:cc="http://creativecommons.org/ns#" xmlns:dc="http://purl.org/dc/elements/1.1/" xmlns:rdf="http://www.w3.org/1999/02/22-rdf-syntax-ns#">
 <defs>
  <marker id="marker4556" overflow="visible" orient="auto">
   <path transform="matrix(.4 0 0 .4 4 0)" d="m0 0 5-5-17.5 5 17.5 5-5-5z" fill-rule="evenodd" stroke="#000" stroke-width="1pt"/>
  </marker>
  <marker id="Arrow1Mend" overflow="visible" orient="auto">
   <path transform="matrix(-.4 0 0 -.4 -4 0)" d="m0 0 5-5-17.5 5 17.5 5-5-5z" fill-rule="evenodd" stroke="#000" stroke-width="1pt"/>
  </marker>
  <marker id="Arrow1Mstart" overflow="visible" orient="auto">
   <path transform="matrix(.4 0 0 .4 4 0)" d="m0 0 5-5-17.5 5 17.5 5-5-5z" fill-rule="evenodd" stroke="#000" stroke-width="1pt"/>
  </marker>
  <clipPath id="clipPath">
   <rect x="82.857" y="280.93" width="291.43" height="200" fill="none" stroke="#ff5f00" stroke-linecap="square" stroke-width="1.221"/>
  </clipPath>
  <marker id="Arrow1Mstart-1" overflow="visible" orient="auto">
   <path transform="matrix(.4 0 0 .4 4 0)" d="m0 0 5-5-17.5 5 17.5 5-5-5z" fill-rule="evenodd" stroke="#000" stroke-width="1pt"/>
  </marker>
  <marker id="Arrow1Mend-6" overflow="visible" orient="auto">
   <path transform="matrix(-.4 0 0 -.4 -4 0)" d="m0 0 5-5-17.5 5 17.5 5-5-5z" fill-rule="evenodd" stroke="#000" stroke-width="1pt"/>
  </marker>
  <marker id="marker4556-4" overflow="visible" orient="auto">
   <path transform="matrix(.4 0 0 .4 4 0)" d="m0 0 5-5-17.5 5 17.5 5-5-5z" fill-rule="evenodd" stroke="#000" stroke-width="1pt"/>
  </marker>
 </defs>
 <metadata>
  <rdf:RDF>
   <cc:Work rdf:about="">
    <dc:format>image/svg+xml</dc:format>
    <dc:type rdf:resource="http://purl.org/dc/dcmitype/StillImage"/>
   </cc:Work>
  </rdf:RDF>
 </metadata>
 <g transform="translate(-54.358 -229.94)">
  <g fill-rule="evenodd" stroke="#000" stroke-width="1px">
   <path d="m183.34 399.99 21.6-25.588 15.326-9.8519 9.5193-1.2116 15.208 6.2016 10.123 9.0072 7.711 8.8223 9.6697 12.549-9.1588-36.732-12.831-55.734-9.0314-32.511-9.0314-18.549-4.5952-2.4222-4.4362 2.4222-6.6678 12.098-6.2322 19.065-5.1628 19.898-9.0314 39.138-9.0314 38.352-3.9467 15.047" opacity=".5"/>
   <path d="m182.9 401.88-12.306 16.986-12.091 15.921-10.914 12.634-13.558 12.617-14.101 9.3669-22.731 8.4708-15.326 2.6254 27.993-1.2094 26.692-4.8966 14.012-8.09 12.443-13.39 8.5029-16.243 4.9052-13.314z" opacity=".5"/>
   <path d="m272.27 400.25 12.306 16.986 12.091 15.921 10.914 12.634 13.558 12.617 14.101 9.3669 22.731 8.4708 15.326 2.6254-27.993-1.2094-26.692-4.8966-14.012-8.09-12.443-13.39-8.5029-16.243-4.9052-13.314z" opacity=".5"/>
  </g>
  <rect x="-442.14" y="285.76" width="291.43" height="200" fill="none" stroke="#ff5f00" stroke-linecap="square" stroke-width="1.221"/>
  <path transform="translate(-432.96 47.155)" d="m82.857 480.93h291.43m-145.71 0v-200m-145.71 198.67c5.1128-0.37471 10.226-0.88482 15.338-1.6288 5.1128-0.744 10.226-1.7246 15.338-3.0588s10.226-3.0274 15.338-5.1781c5.1128-2.1506 10.226-4.7659 15.338-7.8635s10.226-6.6838 15.338-10.632c5.1128-3.9481 10.226-8.2596 15.338-12.637 5.1128-4.3779 10.226-8.8162 15.338-12.896 5.1128-4.0801 10.226-7.7895 15.338-10.713s10.226-5.0466 15.338-6.1122c5.1128-1.0656 10.226-1.0635 15.338 0 5.1128 1.0635 10.226 3.1903 15.338 6.1122s10.226 6.6336 15.338 10.713c5.1128 4.0794 10.226 8.5184 15.338 12.896s10.226 8.6887 15.338 12.637c5.1128 3.9488 10.226 7.5333 15.338 10.632s10.226 5.7119 15.338 7.8635c5.1128 2.1515 10.226 3.8432 15.338 5.1781s10.226 2.3143 15.338 3.0588c5.1128 0.74446 10.226 1.2541 15.338 1.6288" clip-path="url(#clipPath)" fill="none" stroke="#ff5f00" stroke-linecap="square" stroke-width="1.221" title="exp(-x*x)"/>
  <path d="m401.74 558.92v-2.1509c-5.1086-0.60398-10.217-1.4254-15.326-2.6254-5.1086-1.2-10.217-2.7787-15.326-4.9303s-10.217-4.8783-15.326-8.3463c-5.1086-3.468-10.217-7.6804-15.326-12.675-3.7973-3.7124-7.5946-7.8577-11.392-12.355v43.083" fill="#00f" opacity=".3"/>
  <g fill="none" stroke="#000">
   <path d="m82.977 478.99c5.1086-0.60398 10.217-1.4262 15.326-2.6254 5.1086-1.1992 10.217-2.7798 15.326-4.9303 5.1086-2.1505 10.217-4.8798 15.326-8.3463 5.1086-3.4665 10.217-7.6819 15.326-12.675 5.1086-4.9928 10.217-10.773 15.326-17.137 5.1086-6.3637 10.217-13.313 15.326-20.37 5.1086-7.0565 10.217-14.21 15.326-20.787 5.1086-6.5765 10.217-12.556 15.326-17.268 5.1086-4.7121 10.217-8.1344 15.326-9.8519 5.1086-1.7175 10.217-1.7142 15.326 0 5.1086 1.7142 10.217 5.1423 15.326 9.8519 5.1086 4.7096 10.217 10.692 15.326 17.268 5.1086 6.5753 10.217 13.73 15.326 20.787 5.1086 7.0566 10.217 14.005 15.326 20.37 5.1086 6.3648 10.217 12.143 15.326 17.137 5.1086 4.9944 10.217 9.2068 15.326 12.675 5.1086 3.468 10.217 6.1947 15.326 8.3463 5.1086 2.1516 10.217 3.7304 15.326 4.9303 5.1086 1.2 10.217 2.0214 15.326 2.6254" stroke-linecap="square" stroke-width="1.5495" title="exp(-x*x)"/>
   <path d="m228.57 230.4v250.54" marker-start="url(#marker4556)" opacity=".7" stroke-width=".95937px"/>
   <path d="m56.268 480.93h339.8" marker-end="url(#Arrow1Mend)" marker-start="url(#Arrow1Mstart)" opacity=".7" stroke-width="1px"/>
  </g>
  <g transform="matrix(.44576 0 0 .44576 199.82 31.518)" stroke="#000">
   <g transform="matrix(1.063 0 0 -1.063 -186.02 789.27)" fill-rule="evenodd" stroke="#000" stroke-miterlimit="10.433" stroke-width="0" xml:space="preserve"><path d="m478.04 427.67-0.01 0.02v0.02 0.02 0.02l-0.01 0.02v0.02l-0.01 0.02v0.02l-0.03 0.06-0.01 0.03-0.02 0.04-0.05 0.05-0.01 0.02-0.02 0.02-0.02 0.01-0.02 0.02-0.02 0.01-0.02 0.02-0.03 0.01-0.02 0.01-0.03 0.01-0.02 0.01h-0.03l-0.03 0.01h-0.03l-0.03 0.01h-0.02-0.01c-0.55 0-2.54-1.99-3.38-3.44-1.11 2.69-3.05 3.48-4.64 3.48v-1.09c3.23 0 3.94-4.03 3.94-4.37 0-0.32-2.74-11.22-2.89-11.43-0.75-1.39-3.53-4.57-6.33-4.57-2.99 0-3.19 3.84-3.19 4.68 0 2.39 1.44 7.82 2.3 9.91 1.53 3.69 4.12 5.78 6.17 5.78v1.09c-5.88 0-12-7.37-12-14.59 0-4.87 2.94-7.97 6.56-7.97 2.16 0 4.1 1.19 5.89 2.99-0.45-1.74-2.09-8.47-2.25-8.93-0.39-1.39-0.79-1.59-3.58-1.64-0.65 0-1.15 0-1.15-1 0-0.04 0-0.54 0.65-0.54 1.6 0 3.33 0.15 4.99 0.15 1.69 0 3.48-0.15 5.12-0.15 0.25 0 0.89 0 0.89 1 0 0.54-0.48 0.54-1.28 0.54-2.4 0-2.4 0.36-2.4 0.8 0 0.36 0.11 0.66 0.2 1.09z"/><path d="m496.78 403.67 0.3 0.31 0.28 0.32 0.27 0.33 0.26 0.33 0.26 0.34 0.24 0.33 0.23 0.34 0.22 0.34 0.4 0.68 0.19 0.34 0.18 0.33 0.17 0.33 0.16 0.32 0.15 0.32 0.14 0.3 0.13 0.3 0.13 0.29 0.11 0.28 0.1 0.27 0.1 0.25 0.08 0.25 0.08 0.22 0.07 0.21 0.06 0.2 0.05 0.17 0.04 0.16 0.04 0.14 0.03 0.11 0.02 0.1 0.01 0.07v0.05c0 0.45-0.42 0.45-0.59 0.45-0.5 0-0.5-0.09-0.74-0.86-0.62-2.31-1.78-4.44-3.25-6.31-0.03 0.51-0.09 2.86-0.17 3.17-0.51 3.45-3.12 5.67-6.61 5.67l-0.04-0.97c2.79 0 3.59-2.69 3.87-4.84 0.2-1.5 0.14-3.97 0.31-5.81-3.42-2.8-6.37-3.11-7.7-3.11-2.3 0-3.59 1.53-3.59 3.87 0 1 0.5 4.8 2.31 7.2 1.59 2.1 3.58 2.69 4.8 2.69l0.04 0.97c-5.12 0-10.04-4.76-10.04-9.64 0-3.2 2.34-6.06 6.37-6.06 3.22 0 6.11 1.45 8.05 2.95 0.81-2.55 2.59-2.95 3.62-2.95 2.03 0 3.28 1.7 3.28 2.44 0 0.42-0.42 0.42-0.59 0.42-0.45 0-0.52-0.14-0.59-0.36-0.49-1.31-1.57-1.53-1.99-1.53-0.48 0-1.08 0-1.25 4.28z"/></g>
  </g>
  <g transform="matrix(.34104 0 0 .34104 160.55 66.431)">
   <g transform="matrix(1.063 0 0 -1.063 -186.02 789.27)" fill="none" fill-rule="evenodd" stroke="#000" stroke-miterlimit="10.433" xml:space="preserve"><path d="m478.44 422.14v0.74l-0.01 0.75-0.02 0.75-0.04 0.74-0.04 0.75-0.06 0.74-0.08 0.74-0.09 0.73-0.12 0.73-0.14 0.73-0.16 0.72-0.19 0.72-0.21 0.72-0.25 0.7-0.28 0.7-0.15 0.35-0.16 0.34c-2.28 4.8-6.37 5.6-8.47 5.6-2.98 0-6.62-1.3-8.67-5.94-1.59-3.44-1.84-7.33-1.84-11.31 0-3.74 0.2-8.22 2.25-12 2.14-4.03 5.78-5.03 8.22-5.03v1.09c-1.94 0-4.89 1.25-5.79 6.03-0.54 2.98-0.54 7.56-0.54 10.52 0 3.18 0 6.46 0.4 9.15 0.94 5.94 4.68 6.38 5.93 6.38 1.64 0 4.93-0.89 5.87-5.83 0.5-2.78 0.5-6.58 0.5-9.7 0-3.75 0-7.13-0.55-10.32-0.75-4.73-3.59-6.23-5.82-6.23v-1.09c2.68 0 6.46 1.04 8.67 5.78 1.59 3.43 1.84 7.31 1.84 11.25z" fill="#000" stroke-width="0"/></g>
  </g>
  <g fill="none">
   <rect x="52.055" y="992.32" width="291.43" height="200" stroke="#ff5f00" stroke-linecap="square" stroke-width="1.221"/>
   <path d="m58.138 664.64v256.8" marker-start="url(#marker4556-4)" opacity=".7" stroke="#000" stroke-width="1px"/>
   <path d="m17.926 918.43h339.8" marker-end="url(#Arrow1Mend-6)" marker-start="url(#Arrow1Mstart-1)" opacity=".7" stroke="#000" stroke-width="1px"/>
  </g>
  <path d="m226.57 918.13c-1.482-1.2287-2.9641-2.8999-4.4461-5.3412-1.482-2.4412-2.9641-5.653-4.4461-10.03-1.482-4.3773-2.9641-9.9245-4.4461-16.98-1.482-7.0553-2.9641-15.625-4.4461-25.786-1.1016-7.5526-2.2033-15.986-3.3049-25.135l-0.20036 83.572" fill="#00f" opacity=".5"/>
  <path d="m142.09 918.13c1.482-1.2287 2.9641-2.9015 4.4461-5.3411 1.482-2.4397 2.9641-5.6554 4.4461-10.03 1.482-4.375 2.9641-9.9275 4.4461-16.98 1.482-7.0523 2.9641-15.628 4.4461-25.786 1.482-10.157 2.9641-21.917 4.4461-34.864 1.482-12.946 2.9641-27.085 4.4461-41.44 1.482-14.356 2.9641-28.91 4.4461-42.289 1.482-13.379 2.9641-25.543 4.4461-35.129 1.482-9.5864 2.9641-16.549 4.4461-20.043 1.482-3.4942 2.9641-3.4873 4.4461 0 1.482 3.4873 2.9641 10.462 4.4461 20.043 1.482 9.5813 2.9641 21.753 4.4461 35.129 1.482 13.377 2.9641 27.933 4.4461 42.289 1.482 14.356 2.9641 28.492 4.4461 41.44 1.482 12.949 2.9641 24.703 4.4461 34.864 1.482 10.161 2.9641 18.73 4.4461 25.786 1.482 7.0553 2.9641 12.602 4.4461 16.98 1.482 4.3773 2.9641 7.5891 4.4461 10.03 1.482 2.4412 2.9641 4.1124 4.4461 5.3411" fill="none" stroke="#000" stroke-linecap="square" stroke-width="1.5" title="exp(-x*x)"/>
  <path d="m205.28 831.28v104.73" fill="none" stroke="#00f" stroke-width="2"/>
  <g transform="matrix(.44576 0 0 .44576 298.4 844.13)" fill="#00f" stroke="#00f" stroke-opacity=".50196">
   <g transform="matrix(1.063 0 0 -1.063 -186.02 789.27)" fill="#00f" fill-rule="evenodd" stroke="#00f" stroke-miterlimit="10.433" stroke-opacity=".50196" stroke-width="0" xml:space="preserve"><path d="m478.04 427.67-0.01 0.02v0.02 0.02 0.02l-0.01 0.02v0.02l-0.01 0.02v0.02l-0.03 0.06-0.01 0.03-0.02 0.04-0.05 0.05-0.01 0.02-0.02 0.02-0.02 0.01-0.02 0.02-0.02 0.01-0.02 0.02-0.03 0.01-0.02 0.01-0.03 0.01-0.02 0.01h-0.03l-0.03 0.01h-0.03l-0.03 0.01h-0.02-0.01c-0.55 0-2.54-1.99-3.38-3.44-1.11 2.69-3.05 3.48-4.64 3.48v-1.09c3.23 0 3.94-4.03 3.94-4.37 0-0.32-2.74-11.22-2.89-11.43-0.75-1.39-3.53-4.57-6.33-4.57-2.99 0-3.19 3.84-3.19 4.68 0 2.39 1.44 7.82 2.3 9.91 1.53 3.69 4.12 5.78 6.17 5.78v1.09c-5.88 0-12-7.37-12-14.59 0-4.87 2.94-7.97 6.56-7.97 2.16 0 4.1 1.19 5.89 2.99-0.45-1.74-2.09-8.47-2.25-8.93-0.39-1.39-0.79-1.59-3.58-1.64-0.65 0-1.15 0-1.15-1 0-0.04 0-0.54 0.65-0.54 1.6 0 3.33 0.15 4.99 0.15 1.69 0 3.48-0.15 5.12-0.15 0.25 0 0.89 0 0.89 1 0 0.54-0.48 0.54-1.28 0.54-2.4 0-2.4 0.36-2.4 0.8 0 0.36 0.11 0.66 0.2 1.09z"/><path d="m496.78 403.67 0.3 0.31 0.28 0.32 0.27 0.33 0.26 0.33 0.26 0.34 0.24 0.33 0.23 0.34 0.22 0.34 0.4 0.68 0.19 0.34 0.18 0.33 0.17 0.33 0.16 0.32 0.15 0.32 0.14 0.3 0.13 0.3 0.13 0.29 0.11 0.28 0.1 0.27 0.1 0.25 0.08 0.25 0.08 0.22 0.07 0.21 0.06 0.2 0.05 0.17 0.04 0.16 0.04 0.14 0.03 0.11 0.02 0.1 0.01 0.07v0.05c0 0.45-0.42 0.45-0.59 0.45-0.5 0-0.5-0.09-0.74-0.86-0.62-2.31-1.78-4.44-3.25-6.31-0.03 0.51-0.09 2.86-0.17 3.17-0.51 3.45-3.12 5.67-6.61 5.67l-0.04-0.97c2.79 0 3.59-2.69 3.87-4.84 0.2-1.5 0.14-3.97 0.31-5.81-3.42-2.8-6.37-3.11-7.7-3.11-2.3 0-3.59 1.53-3.59 3.87 0 1 0.5 4.8 2.31 7.2 1.59 2.1 3.58 2.69 4.8 2.69l0.04 0.97c-5.12 0-10.04-4.76-10.04-9.64 0-3.2 2.34-6.06 6.37-6.06 3.22 0 6.11 1.45 8.05 2.95 0.81-2.55 2.59-2.95 3.62-2.95 2.03 0 3.28 1.7 3.28 2.44 0 0.42-0.42 0.42-0.59 0.42-0.45 0-0.52-0.14-0.59-0.36-0.49-1.31-1.57-1.53-1.99-1.53-0.48 0-1.08 0-1.25 4.28z"/></g>
  </g>
  <g transform="translate(76.235 281.74)">
   <g transform="matrix(1.063 0 0 -1.063 -186.02 789.27)" fill="none" fill-rule="evenodd" stroke="#000" stroke-miterlimit="10.433" xml:space="preserve"><path d="m470.16 424.78h8.38c0.65 0 2.43 0 2.43 1.7 0 1.19-1.04 1.19-1.98 1.19h-13.95c-1 0-2.94 0-5.13-2.35-1.66-1.78-3.05-4.17-3.05-4.48 0-0.05 0-0.48 0.6-0.48 0.4 0 0.5 0.18 0.79 0.59 2.46 3.83 5.29 3.83 6.33 3.83h4.14l-4.89-15.99c-0.19-0.59-0.48-1.64-0.48-1.84 0-0.55 0.34-1.34 1.44-1.34 1.64 0 1.89 1.39 2.04 2.14z" fill="#000" stroke-width="0"/></g>
  </g>
  <g transform="matrix(.46033 0 0 .46033 62.637 786.2)" fill="#00f" stroke="#00f">
   <g transform="matrix(1.063 0 0 -1.063 -186.02 789.27)" fill="#00f" fill-rule="evenodd" stroke="#00f" stroke-miterlimit="10.433" stroke-width="0" xml:space="preserve"><path d="m470.16 424.78h8.38c0.65 0 2.43 0 2.43 1.7 0 1.19-1.04 1.19-1.98 1.19h-13.95c-1 0-2.94 0-5.13-2.35-1.66-1.78-3.05-4.17-3.05-4.48 0-0.05 0-0.48 0.6-0.48 0.4 0 0.5 0.18 0.79 0.59 2.46 3.83 5.29 3.83 6.33 3.83h4.14l-4.89-15.99c-0.19-0.59-0.48-1.64-0.48-1.84 0-0.55 0.34-1.34 1.44-1.34 1.64 0 1.89 1.39 2.04 2.14z"/><path d="m481.49 400.95-0.02-0.04-0.01-0.05-0.01-0.04-0.02-0.05-0.01-0.05-0.02-0.06-0.02-0.1-0.06-0.22-0.03-0.12-0.03-0.1-0.01-0.06-0.04-0.2-0.01-0.04-0.01-0.05-0.01-0.04-0.01-0.03-0.01-0.04v-0.03l-0.01-0.03v-0.02-0.02-0.01-0.01-0.01h-0.01c0-0.77 0.63-1.11 1.19-1.11 0.63 0 1.17 0.45 1.36 0.76 0.17 0.32 0.45 1.43 0.63 2.16 0.17 0.66 0.54 2.27 0.76 3.14 0.21 0.77 0.42 1.53 0.6 2.33 0.37 1.44 0.45 1.7 1.45 3.14 0.98 1.39 2.62 3.2 5.23 3.2 2.02 0 2.05-1.78 2.05-2.44 0-2.09-1.48-5.95-2.05-7.42-0.39-0.98-0.53-1.29-0.53-1.89 0-1.84 1.55-2.98 3.31-2.98 3.49 0 5.02 4.79 5.02 5.33 0 0.45-0.45 0.45-0.55 0.45-0.5 0-0.53-0.2-0.67-0.59-0.8-2.79-2.3-4.22-3.69-4.22-0.73 0-0.87 0.48-0.87 1.22 0 0.79 0.17 1.25 0.8 2.82 0.42 1.08 1.86 4.77 1.86 6.72 0 3.39-2.69 3.97-4.54 3.97-2.89 0-4.84-1.76-5.89-3.16-0.25 2.4-2.29 3.16-3.73 3.16-1.5 0-2.3-1.08-2.75-1.87-0.77-1.29-1.25-3.29-1.25-3.46 0-0.45 0.48-0.45 0.59-0.45 0.49 0 0.52 0.11 0.77 1.05 0.51 2.06 1.19 3.76 2.55 3.76 0.9 0 1.14-0.76 1.14-1.7 0-0.67-0.32-1.95-0.57-2.89-0.23-0.95-0.57-2.38-0.76-3.14z"/><path d="m509.2 399.32-0.01-0.36-0.02-0.37-0.02-0.38-0.05-0.38-0.03-0.19-0.03-0.2-0.04-0.2-0.04-0.19-0.05-0.2-0.12-0.4-0.14-0.4-0.09-0.21-0.09-0.2-0.1-0.21-0.1-0.2-0.12-0.21-0.12-0.2-0.13-0.21-0.14-0.21-0.16-0.2-0.16-0.21-0.17-0.21-0.18-0.21-0.19-0.2-0.42-0.42c-0.14-0.14-0.25-0.25-0.25-0.42 0-0.25 0.28-0.49 0.48-0.49 0.49 0 3.45 2.78 3.45 6.92 0 2.18-0.84 3.8-2.43 3.8-1.16 0-1.99-0.9-1.99-1.98 0-1.11 0.8-2.02 2.02-2.02 0.84 0 1.39 0.56 1.44 0.56z"/><path d="m532.78 403.67 0.29 0.31 0.29 0.32 0.27 0.33 0.26 0.33 0.25 0.34 0.24 0.33 0.23 0.34 0.22 0.34 0.21 0.34 0.2 0.34 0.19 0.34 0.18 0.33 0.17 0.33 0.16 0.32 0.15 0.32 0.14 0.3 0.13 0.3 0.12 0.29 0.11 0.28 0.11 0.27 0.18 0.5 0.08 0.22 0.06 0.21 0.06 0.2 0.06 0.17 0.04 0.16 0.03 0.14 0.03 0.11 0.02 0.1 0.01 0.07 0.01 0.05c0 0.45-0.43 0.45-0.6 0.45-0.5 0-0.5-0.09-0.73-0.86-0.63-2.31-1.78-4.44-3.25-6.31-0.03 0.51-0.1 2.86-0.17 3.17-0.52 3.45-3.13 5.67-6.61 5.67l-0.05-0.97c2.8 0 3.6-2.69 3.88-4.84 0.2-1.5 0.14-3.97 0.31-5.81-3.42-2.8-6.38-3.11-7.71-3.11-2.29 0-3.59 1.53-3.59 3.87 0 1 0.5 4.8 2.31 7.2 1.6 2.1 3.58 2.69 4.8 2.69l0.05 0.97c-5.13 0-10.05-4.76-10.05-9.64 0-3.2 2.35-6.06 6.38-6.06 3.22 0 6.1 1.45 8.04 2.95 0.81-2.55 2.6-2.95 3.63-2.95 2.03 0 3.28 1.7 3.28 2.44 0 0.42-0.42 0.42-0.6 0.42-0.45 0-0.51-0.14-0.59-0.36-0.48-1.31-1.56-1.53-1.98-1.53-0.49 0-1.08 0-1.25 4.28z"/></g>
  </g>
  <g transform="matrix(.45125 0 0 .45125 41.636 770.81)">
   <g transform="matrix(1.063 0 0 -1.063 -186.02 789.27)" fill-rule="evenodd" stroke="#000" stroke-miterlimit="10.433" stroke-width="0" xml:space="preserve"><path d="m467.04 423.68 0.02 0.1 0.02 0.11 0.06 0.22 0.12 0.48 0.12 0.5 0.06 0.24 0.06 0.25 0.02 0.11 0.03 0.12 0.03 0.11 0.02 0.11 0.03 0.1 0.04 0.2 0.02 0.08 0.02 0.09 0.01 0.07 0.02 0.07 0.01 0.07 0.01 0.05v0.05l0.01 0.03v0.02 0.01c0 0.84-0.59 1.34-1.44 1.34-0.15 0-1.54-0.04-2-1.78l-7.17-28.86c-0.14-0.59-0.14-0.68-0.14-0.79 0-0.74 0.55-1.35 1.39-1.35 1.05 0 1.64 0.91 1.75 1.05 0.19 0.45 0.84 3.05 2.73 10.72 1.6-1.34 3.83-1.55 4.83-1.55 3.49 0 5.44 2.24 6.63 3.64 0.45-2.25 2.29-3.64 4.48-3.64 1.75 0 2.89 1.14 3.69 2.74 0.84 1.79 1.5 4.84 1.5 4.93 0 0.5-0.45 0.5-0.59 0.5-0.5 0-0.55-0.2-0.71-0.9-0.84-3.24-1.75-6.17-3.78-6.17-1.34 0-1.5 1.29-1.5 2.29 0 1.1 0.6 3.44 1 5.17l1.39 5.4c0.16 0.75 0.64 2.64 0.85 3.39 0.25 1.14 0.75 3.03 0.75 3.32 0 0.91-0.71 1.35-1.44 1.35-0.25 0-1.55-0.05-1.95-1.74l-2.35-9.32c-0.59-2.49-1.14-4.58-1.3-5.08-0.04-0.25-2.43-4.78-6.46-4.78-2.49 0-3.69 1.64-3.69 4.32 0 1.46 0.34 2.85 0.7 4.25z"/><path d="m503.5 409.87v0.71l-0.02 0.68-0.03 0.66-0.04 0.64-0.06 0.62-0.07 0.6-0.1 0.57-0.1 0.56-0.13 0.55-0.15 0.53-0.17 0.51-0.19 0.5-0.21 0.49-0.24 0.48-0.26 0.47-0.14 0.23-0.15 0.23c-1.08 1.61-3.23 3-6.03 3v-0.98c1.89 0 3.7-1.14 4.33-3.17 0.56-1.88 0.59-4.39 0.59-7.43 0-2.57 0-5.15-0.45-7.34-0.7-3.17-3.06-3.94-4.47-3.94-1.59 0-3.72 0.94-4.42 3.8-0.49 2.05-0.49 4.91-0.49 7.48 0 2.55 0 5.21 0.52 7.11 0.73 2.75 2.97 3.49 4.39 3.49v0.98c-8.08 0-8.08-9.51-8.08-12.03 0-2.5 0-11.81 8.08-11.81 8.09 0 8.09 9.31 8.09 11.81z"/></g>
  </g>
  <path d="m184.28 683.61v234.82" fill="none" stroke="#000" stroke-dasharray="1, 2"/>
  <g transform="matrix(.52188 0 0 .52188 203.75 741.31)">
   <g transform="matrix(1.063 0 0 -1.063 -186.02 789.27)" fill-rule="evenodd" stroke="#000" stroke-miterlimit="10.433" stroke-width="0" xml:space="preserve"><polyline points="456 446 501.24 446 501.24 448.04 456 448.04" fill-rule="nonzero"/><path d="m479.68 426.68-4.18 9.91c-0.15 0.41-0.25 0.59-0.25 0.64 0 0.31 0.85 1.25 2.94 1.45 0.5 0.05 1 0.1 1 0.96 0 0.59-0.61 0.59-0.75 0.59-2.05 0-4.19-0.16-6.28-0.16-1.25 0-4.33 0.16-5.58 0.16-0.29 0-0.9 0-0.9-1 0-0.55 0.5-0.55 1.15-0.55 2.99 0 3.28-0.5 3.74-1.59l5.87-13.91-10.51-11.31-0.64-0.55c-2.44-2.64-4.79-3.43-7.33-3.57-0.64-0.05-1.1-0.05-1.1-1 0-0.05 0-0.55 0.66-0.55 1.48 0 3.12 0.16 4.67 0.16 1.85 0 3.8-0.16 5.58-0.16 0.31 0 0.91 0 0.91 1 0 0.5-0.5 0.55-0.6 0.55-0.45 0.04-2 0.14-2 1.54 0 0.8 0.75 1.6 1.35 2.24l5.07 5.39 4.49 4.87 5.03-11.9c0.2-0.55 0.25-0.6 0.25-0.71 0-0.39-0.94-1.23-2.89-1.43-0.55-0.05-0.99-0.11-0.99-0.96 0-0.59 0.55-0.59 0.74-0.59 1.41 0 4.89 0.16 6.28 0.16 1.25 0 4.28-0.16 5.53-0.16 0.35 0 0.95 0 0.95 0.95 0 0.6-0.5 0.6-0.9 0.6-3.33 0.04-3.44 0.2-4.28 2.18-1.94 4.64-5.28 12.41-6.42 15.39 3.39 3.5 8.6 9.43 10.2 10.82 1.45 1.2 3.34 2.39 6.33 2.54 0.65 0.05 1.09 0.05 1.09 1 0 0.05 0 0.55-0.64 0.55-1.5 0-3.14-0.16-4.69-0.16-1.84 0-3.73 0.16-5.53 0.16-0.3 0-0.94 0-0.94-1 0-0.34 0.25-0.5 0.6-0.55 0.45-0.04 2-0.15 2-1.54 0-0.71-0.55-1.35-0.96-1.8z"/><path d="m505.01 400.95-0.01-0.04-0.02-0.05-0.01-0.04-0.01-0.05-0.02-0.05-0.01-0.06-0.02-0.05-0.01-0.05-0.06-0.22-0.03-0.12-0.02-0.1-0.02-0.06-0.04-0.2-0.01-0.04-0.01-0.05-0.01-0.04-0.01-0.03v-0.04l-0.01-0.03v-0.03l-0.01-0.02v-0.02-0.01-0.01-0.01c0-0.77 0.62-1.11 1.19-1.11 0.62 0 1.17 0.45 1.35 0.76 0.18 0.32 0.46 1.43 0.63 2.16 0.17 0.66 0.55 2.27 0.77 3.14 0.2 0.77 0.42 1.53 0.59 2.33 0.37 1.44 0.45 1.7 1.45 3.14 0.99 1.39 2.63 3.2 5.24 3.2 2.01 0 2.04-1.78 2.04-2.44 0-2.09-1.48-5.95-2.04-7.42-0.39-0.98-0.54-1.29-0.54-1.89 0-1.84 1.55-2.98 3.32-2.98 3.48 0 5.01 4.79 5.01 5.33 0 0.45-0.45 0.45-0.54 0.45-0.5 0-0.54-0.2-0.67-0.59-0.8-2.79-2.3-4.22-3.69-4.22-0.74 0-0.88 0.48-0.88 1.22 0 0.79 0.17 1.25 0.8 2.82 0.42 1.08 1.86 4.77 1.86 6.72 0 3.39-2.69 3.97-4.53 3.97-2.89 0-4.85-1.76-5.89-3.16-0.25 2.4-2.3 3.16-3.74 3.16-1.5 0-2.29-1.08-2.75-1.87-0.76-1.29-1.25-3.29-1.25-3.46 0-0.45 0.49-0.45 0.6-0.45 0.48 0 0.51 0.11 0.76 1.05 0.52 2.06 1.19 3.76 2.55 3.76 0.9 0 1.14-0.76 1.14-1.7 0-0.67-0.31-1.95-0.56-2.89-0.24-0.95-0.58-2.38-0.77-3.14z"/></g>
  </g>
  <g transform="matrix(.34104 0 0 .34104 -48.652 815.42)" opacity=".8">
   <g transform="matrix(1.063 0 0 -1.063 -186.02 789.27)" fill="none" fill-rule="evenodd" stroke="#000" stroke-miterlimit="10.433" xml:space="preserve"><path d="m478.44 422.14v0.74l-0.01 0.75-0.02 0.75-0.04 0.74-0.04 0.75-0.06 0.74-0.08 0.74-0.09 0.73-0.12 0.73-0.14 0.73-0.16 0.72-0.19 0.72-0.21 0.72-0.25 0.7-0.28 0.7-0.15 0.35-0.16 0.34c-2.28 4.8-6.37 5.6-8.47 5.6-2.98 0-6.62-1.3-8.67-5.94-1.59-3.44-1.84-7.33-1.84-11.31 0-3.74 0.2-8.22 2.25-12 2.14-4.03 5.78-5.03 8.22-5.03v1.09c-1.94 0-4.89 1.25-5.79 6.03-0.54 2.98-0.54 7.56-0.54 10.52 0 3.18 0 6.46 0.4 9.15 0.94 5.94 4.68 6.38 5.93 6.38 1.64 0 4.93-0.89 5.87-5.83 0.5-2.78 0.5-6.58 0.5-9.7 0-3.75 0-7.13-0.55-10.32-0.75-4.73-3.59-6.23-5.82-6.23v-1.09c2.68 0 6.46 1.04 8.67 5.78 1.59 3.43 1.84 7.31 1.84 11.25z" fill="#000" stroke-width="0"/></g>
  </g>
  <g fill="#00f">
   <g transform="translate(-108.24 277.57)" stroke="#00f">
    <g transform="matrix(.80982 0 0 -.80982 -141.72 682.51)" fill="#00f" fill-rule="evenodd" stroke="#00f" stroke-miterlimit="10.433" stroke-width="0" xml:space="preserve"><path d="m470.61 421.95 0.21 1.28 3.39 13.56c0.43 1.74 0.54 1.89 2.68 1.89h4.79c4.14 0 6.78-1.34 6.78-4.78 0-1.95-1-6.23-2.94-8.03-2.5-2.23-5.48-2.64-7.69-2.64h-7.01l-0.21-1.28h8.47c7.08 0 14 5.17 14 10.75 0 3.84-3.28 7.53-9.81 7.53h-16.14c-0.95 0-1.5 0-1.5-0.95 0-0.6 0.45-0.6 1.45-0.6 0.64 0 1.55-0.04 2.14-0.09 0.8-0.11 1.1-0.25 1.1-0.8 0-0.2-0.05-0.36-0.21-0.95l-6.67-26.75c-0.5-1.95-0.59-2.34-4.53-2.34-0.84 0-1.39 0-1.39-0.96 0-0.59 0.59-0.59 0.73-0.59 1.41 0 4.94 0.16 6.33 0.16 1.05 0 2.14-0.07 3.19-0.07 1.11 0 2.2-0.09 3.25-0.09 0.34 0 0.98 0 0.98 1 0 0.55-0.43 0.55-1.39 0.55-1.84 0-3.23 0-3.23 0.89 0 0.29 0.09 0.54 0.14 0.84z"/><path d="m511 394.25v0.02 0.03 0.01 0.02 0.01l-0.01 0.02v0.01l-0.04 0.08-0.02 0.03-0.01 0.02-0.04 0.06-0.03 0.03-0.02 0.03-0.03 0.04-0.02 0.02-0.01 0.02-0.06 0.06-0.02 0.03-0.04 0.04-0.02 0.03-0.03 0.02-0.02 0.03-0.06 0.06-0.02 0.03-0.34 0.34c-6.22 6.28-7.81 15.69-7.81 23.31 0 8.67 1.89 17.35 8.01 23.56 0.64 0.61 0.64 0.71 0.64 0.86 0 0.35-0.18 0.49-0.48 0.49-0.5 0-4.98-3.38-7.92-9.7-2.55-5.49-3.14-11.02-3.14-15.21 0-3.89 0.54-9.9 3.28-15.54 2.98-6.13 7.28-9.36 7.78-9.36 0.3 0 0.48 0.14 0.48 0.5z"/><path d="m535.12 436.43 0.01 0.07 0.02 0.06 0.06 0.24 0.06 0.22 0.03 0.09 0.03 0.1 0.03 0.09 0.03 0.08 0.02 0.08 0.06 0.14 0.09 0.18 0.03 0.05 0.04 0.05 0.06 0.08 0.04 0.04 0.03 0.04 0.12 0.09 0.04 0.02 0.04 0.03 0.05 0.02 0.04 0.02 0.05 0.01 0.05 0.02 0.05 0.01 0.06 0.02c0.45 0.11 2.09 0.11 3.14 0.11 5.03 0 7.26-0.21 7.26-4.1 0-0.73-0.18-2.68-0.39-3.98-0.04-0.19-0.15-0.8-0.15-0.94 0-0.3 0.15-0.66 0.59-0.66 0.56 0 0.66 0.41 0.75 1.16l1.34 8.66c0.07 0.2 0.11 0.7 0.11 0.86 0 0.54-0.5 0.54-1.34 0.54h-27.66c-1.2 0-1.25-0.06-1.59-1l-2.98-8.76c-0.07-0.11-0.3-0.8-0.3-0.91 0-0.3 0.23-0.55 0.59-0.55 0.5 0 0.55 0.25 0.85 1.05 2.68 7.72 3.98 8.63 11.36 8.63h1.93c1.41 0 1.41-0.21 1.41-0.6 0-0.31-0.16-0.9-0.2-1.04l-6.68-26.61c-0.45-1.85-0.6-2.39-5.93-2.39-1.8 0-2.1 0-2.1-0.96 0-0.59 0.55-0.59 0.85-0.59 1.36 0 2.75 0.09 4.09 0.09 1.39 0 2.84 0.07 4.24 0.07 1.39 0 2.78-0.07 4.14-0.07 1.43 0 2.93-0.09 4.32-0.09 0.5 0 1.1 0 1.1 1 0 0.55-0.39 0.55-1.69 0.55-1.25 0-1.89 0-3.19 0.09-1.45 0.16-1.84 0.3-1.84 1.09 0 0.07 0 0.32 0.19 1.05z"/><path d="m547.25 400.95-0.01-0.04-0.02-0.05-0.01-0.04-0.02-0.05-0.01-0.05-0.01-0.06-0.02-0.05-0.01-0.05-0.06-0.22-0.03-0.12-0.02-0.1-0.02-0.06-0.04-0.2-0.01-0.04-0.01-0.05-0.01-0.04-0.01-0.03v-0.04l-0.01-0.03v-0.03l-0.01-0.02v-0.02-0.01-0.01-0.01c0-0.77 0.62-1.11 1.18-1.11 0.63 0 1.18 0.45 1.36 0.76 0.17 0.32 0.46 1.43 0.63 2.16 0.17 0.66 0.54 2.27 0.76 3.14 0.21 0.77 0.43 1.53 0.6 2.33 0.37 1.44 0.45 1.7 1.45 3.14 0.99 1.39 2.63 3.2 5.23 3.2 2.02 0 2.05-1.78 2.05-2.44 0-2.09-1.48-5.95-2.05-7.42-0.39-0.98-0.53-1.29-0.53-1.89 0-1.84 1.55-2.98 3.32-2.98 3.48 0 5.01 4.79 5.01 5.33 0 0.45-0.45 0.45-0.54 0.45-0.5 0-0.54-0.2-0.68-0.59-0.79-2.79-2.29-4.22-3.68-4.22-0.74 0-0.88 0.48-0.88 1.22 0 0.79 0.17 1.25 0.8 2.82 0.42 1.08 1.86 4.77 1.86 6.72 0 3.39-2.69 3.97-4.53 3.97-2.89 0-4.85-1.76-5.89-3.16-0.26 2.4-2.3 3.16-3.74 3.16-1.5 0-2.3-1.08-2.75-1.87-0.77-1.29-1.25-3.29-1.25-3.46 0-0.45 0.48-0.45 0.59-0.45 0.49 0 0.52 0.11 0.77 1.05 0.52 2.06 1.19 3.76 2.55 3.76 0.9 0 1.14-0.76 1.14-1.7 0-0.67-0.31-1.95-0.57-2.89-0.23-0.95-0.57-2.38-0.76-3.14z"/><path d="m617.55 417.56 0.1 0.05 0.09 0.04 0.05 0.03 0.05 0.02 0.04 0.03 0.05 0.02 0.04 0.03 0.04 0.02 0.12 0.09 0.03 0.03 0.04 0.03 0.09 0.09 0.03 0.04 0.02 0.03 0.03 0.04 0.06 0.12 0.01 0.04 0.02 0.04 0.02 0.1 0.01 0.04 0.01 0.05v0.06 0.05c0 0.6-0.41 0.85-0.95 1.1l-27.6 13.01c-0.65 0.35-0.75 0.35-0.9 0.35-0.55 0-0.99-0.46-0.99-1 0-0.46 0.25-0.75 0.94-1.1l26.16-12.36-26.16-12.36c-0.69-0.34-0.94-0.64-0.94-1.09 0-0.55 0.44-1 0.99-1 0.15 0 0.25 0 0.9 0.36z"/><path d="m658.99 427.67v0.02 0.02 0.02 0.02l-0.01 0.02v0.02l-0.02 0.04v0.02l-0.02 0.04-0.01 0.03-0.01 0.02-0.02 0.02-0.01 0.02-0.05 0.05-0.01 0.02-0.02 0.01-0.02 0.02-0.02 0.01-0.02 0.02-0.03 0.01-0.02 0.01-0.06 0.02h-0.02l-0.03 0.01h-0.03l-0.03 0.01h-0.02-0.02c-0.54 0-2.53-1.99-3.37-3.44-1.11 2.69-3.05 3.48-4.64 3.48v-1.09c3.23 0 3.93-4.03 3.93-4.37 0-0.32-2.73-11.22-2.89-11.43-0.75-1.39-3.53-4.57-6.32-4.57-2.99 0-3.19 3.84-3.19 4.68 0 2.39 1.44 7.82 2.29 9.91 1.54 3.69 4.13 5.78 6.18 5.78v1.09c-5.88 0-12-7.37-12-14.59 0-4.87 2.93-7.97 6.56-7.97 2.16 0 4.09 1.19 5.89 2.99-0.45-1.74-2.09-8.47-2.25-8.93-0.39-1.39-0.8-1.59-3.58-1.64-0.65 0-1.15 0-1.15-1 0-0.04 0-0.54 0.65-0.54 1.6 0 3.33 0.15 4.99 0.15 1.68 0 3.48-0.15 5.12-0.15 0.25 0 0.89 0 0.89 1 0 0.54-0.48 0.54-1.28 0.54-2.41 0-2.41 0.36-2.41 0.8 0 0.36 0.11 0.66 0.21 1.09z"/><path d="m677.74 403.67 0.3 0.31 0.28 0.32 0.27 0.33 0.26 0.33 0.26 0.34 0.24 0.33 0.23 0.34 0.22 0.34 0.21 0.34 0.2 0.34 0.18 0.34 0.18 0.33 0.17 0.33 0.16 0.32 0.15 0.32 0.14 0.3 0.13 0.3 0.13 0.29 0.11 0.28 0.1 0.27 0.1 0.25 0.08 0.25 0.08 0.22 0.07 0.21 0.06 0.2 0.05 0.17 0.04 0.16 0.04 0.14 0.03 0.11 0.02 0.1 0.01 0.07v0.05c0 0.45-0.42 0.45-0.59 0.45-0.5 0-0.5-0.09-0.74-0.86-0.62-2.31-1.78-4.44-3.25-6.31-0.03 0.51-0.09 2.86-0.17 3.17-0.51 3.45-3.12 5.67-6.61 5.67l-0.04-0.97c2.79 0 3.59-2.69 3.87-4.84 0.2-1.5 0.14-3.97 0.31-5.81-3.42-2.8-6.37-3.11-7.7-3.11-2.3 0-3.59 1.53-3.59 3.87 0 1 0.5 4.8 2.31 7.2 1.59 2.1 3.58 2.69 4.8 2.69l0.04 0.97c-5.12 0-10.04-4.76-10.04-9.64 0-3.2 2.34-6.06 6.37-6.06 3.22 0 6.11 1.45 8.05 2.95 0.81-2.55 2.59-2.95 3.62-2.95 2.03 0 3.28 1.7 3.28 2.44 0 0.42-0.42 0.42-0.59 0.42-0.45 0-0.52-0.14-0.59-0.36-0.49-1.31-1.57-1.53-1.99-1.53-0.48 0-1.08 0-1.25 4.28z"/><path d="m701.51 418.65v0.37 0.39l-0.01 0.39-0.02 0.41-0.04 0.84-0.06 0.88-0.08 0.92-0.11 0.95-0.13 0.97-0.16 1.01-0.2 1.02-0.23 1.03-0.27 1.05-0.3 1.06-0.35 1.07-0.39 1.07-0.44 1.06-0.24 0.53-0.25 0.53c-2.98 6.12-7.26 9.36-7.76 9.36-0.3 0-0.5-0.19-0.5-0.49 0-0.15 0-0.25 0.93-1.15 4.89-4.92 7.74-12.85 7.74-23.27 0-8.51-1.85-17.28-8.04-23.56-0.63-0.59-0.63-0.7-0.63-0.84 0-0.3 0.2-0.5 0.5-0.5 0.5 0 4.96 3.39 7.92 9.71 2.53 5.47 3.12 11 3.12 15.19z"/></g>
   </g>
   <g transform="translate(-138.79 240.82)">
    <g transform="matrix(.80982 0 0 -.80982 -141.72 682.51)" fill="#00f" fill-rule="evenodd" stroke="#000" stroke-miterlimit="10.433" stroke-width="0" xml:space="preserve"><path d="m468.57 421.54h0.01 0.01 0.01 0.01 0.02 0.01 0.04 0.04 0.04 0.04 0.05 0.05 0.05 0.05 0.06 0.11 0.11l0.11-0.01h0.05 0.06 0.05 0.05 0.04l0.05-0.01h0.04 0.04l0.03-0.01h0.02 0.01 0.02 0.01 0.01l0.01-0.01h0.01 0.01 0.01 1.7c10.11 0 13.75 4.73 13.75 9.46 0 7.07-6.37 9.36-12.81 9.36h-14.55c-0.89 0-1.68 0-1.68-0.89 0-0.84 0.95-0.84 1.34-0.84 2.59 0 2.8-0.41 2.8-2.84v-24.97l1.73-0.1v25.16c0 0.66 0 1.84-0.39 2.75h5.67c-0.64-0.8-0.64-1.8-0.64-2.55l1.74-0.15c0 1 0 2.7 3 2.7 3.57 0 5.23-1.36 5.23-7.58h1.74c0 2.64-0.25 5.28-1.55 7.13 2.75-0.66 6.62-2.14 6.62-7.18 0-3.48-2.23-6.03-6.81-7.17 1.59 2.08 1.74 5.22 1.74 7.22h-1.74c0-7.12-2.64-7.72-5.73-7.72h-2.5v12.6l-1.74 0.15v-25.36c0-0.5 0-1.84 0.39-2.73h-5.42c0.39 0.89 0.39 2.09 0.39 2.73l-1.73 0.1c0-2.44-0.21-2.83-2.75-2.83-0.5 0-1.39 0-1.39-0.86 0-0.89 0.79-0.89 1.68-0.89h13.36c0.89 0 1.64 0 1.64 0.89 0 0.86-0.84 0.86-1.39 0.86-2.84 0-3.04 0.39-3.04 2.83z"/><path d="m487.88 393.15-0.02-0.05-0.02-0.08-0.01-0.05v-0.04l-0.01-0.03-0.02-0.08v-0.03l-0.01-0.03v-0.03l-0.01-0.03v-0.03l-0.01-0.02v-0.02-0.03l-0.01-0.02v-0.02-0.02-0.01-0.02l-0.01-0.01v-0.01-0.02-0.01-0.01-0.01-0.01-0.01c0-0.77 0.63-1.11 1.17-1.11 1.27 0 1.53 1.14 1.67 1.73 0.08 0.17 0.77 2.97 1.61 6.38 1.08-0.72 2.47-1 3.74-1 2.98 0 4.94 2.44 5.01 2.5 0.66-2.41 3.07-2.5 3.58-2.5 1.27 0 2.13 0.76 2.77 1.84 0.76 1.36 1.22 3.35 1.22 3.49 0 0.45-0.46 0.45-0.57 0.45-0.48 0-0.53-0.14-0.76-1.08-0.42-1.67-1.08-3.73-2.55-3.73-0.91 0-1.16 0.76-1.16 1.7 0 0.59 0.29 1.86 0.54 2.77 0.25 0.93 0.59 2.35 0.76 3.12l0.8 3.11c0.22 0.87 0.59 2.41 0.59 2.58 0 0.69-0.55 1.11-1.14 1.11-0.39 0-1.05-0.17-1.44-0.83-0.11-0.22-0.37-1.33-0.56-2.03l-0.72-2.89-1.08-4.36c-0.25-0.86-0.25-0.94-0.56-1.39-1.08-1.53-2.61-2.89-4.61-2.89-2.84 0-2.84 2.47-2.84 3.11 0 0.9 0.09 1.36 0.59 3.23 0.35 1.53 0.41 1.78 0.77 3.14l0.48 1.95c0.17 0.72 0.52 2.05 0.52 2.19 0 0.63-0.49 1.11-1.19 1.11-1.25 0-1.56-1.22-1.67-1.62z"/><path d="m548.68 394.25v0.02 0.03 0.01 0.02 0.01l-0.01 0.02v0.01l-0.04 0.08-0.02 0.03-0.01 0.02-0.04 0.06-0.03 0.03-0.02 0.03-0.03 0.04-0.02 0.02-0.01 0.02-0.06 0.06-0.02 0.03-0.04 0.04-0.02 0.03-0.03 0.02-0.02 0.03-0.06 0.06-0.02 0.03-0.34 0.34c-6.22 6.28-7.81 15.69-7.81 23.31 0 8.67 1.89 17.35 8.01 23.56 0.64 0.61 0.64 0.71 0.64 0.86 0 0.35-0.18 0.49-0.48 0.49-0.5 0-4.98-3.38-7.92-9.7-2.55-5.49-3.14-11.02-3.14-15.21 0-3.89 0.54-9.9 3.28-15.54 2.98-6.13 7.28-9.36 7.78-9.36 0.3 0 0.48 0.14 0.48 0.5z"/><path d="m572.8 436.43 0.01 0.07 0.02 0.06 0.06 0.24 0.06 0.22 0.03 0.09 0.03 0.1 0.03 0.09 0.03 0.08 0.02 0.08 0.06 0.14 0.09 0.18 0.03 0.05 0.04 0.05 0.06 0.08 0.04 0.04 0.03 0.04 0.12 0.09 0.04 0.02 0.04 0.03 0.05 0.02 0.04 0.02 0.05 0.01 0.05 0.02 0.05 0.01 0.06 0.02c0.45 0.11 2.09 0.11 3.14 0.11 5.03 0 7.26-0.21 7.26-4.1 0-0.73-0.18-2.68-0.39-3.98-0.04-0.19-0.15-0.8-0.15-0.94 0-0.3 0.15-0.66 0.59-0.66 0.56 0 0.66 0.41 0.75 1.16l1.34 8.66c0.07 0.2 0.11 0.7 0.11 0.86 0 0.54-0.5 0.54-1.34 0.54h-27.66c-1.2 0-1.25-0.06-1.59-1l-2.98-8.76c-0.07-0.11-0.3-0.8-0.3-0.91 0-0.3 0.23-0.55 0.59-0.55 0.5 0 0.55 0.25 0.85 1.05 2.68 7.72 3.98 8.63 11.36 8.63h1.93c1.41 0 1.41-0.21 1.41-0.6 0-0.31-0.16-0.9-0.2-1.04l-6.68-26.61c-0.45-1.85-0.6-2.39-5.93-2.39-1.8 0-2.1 0-2.1-0.96 0-0.59 0.55-0.59 0.85-0.59 1.36 0 2.75 0.09 4.09 0.09 1.39 0 2.84 0.07 4.23 0.07 1.4 0 2.79-0.07 4.15-0.07 1.43 0 2.93-0.09 4.32-0.09 0.5 0 1.1 0 1.1 1 0 0.55-0.39 0.55-1.69 0.55-1.25 0-1.89 0-3.19 0.09-1.45 0.16-1.84 0.3-1.84 1.09 0 0.07 0 0.32 0.19 1.05z"/><path d="m584.93 400.95-0.01-0.04-0.02-0.05-0.01-0.04-0.02-0.05-0.01-0.05-0.01-0.06-0.02-0.05-0.01-0.05-0.06-0.22-0.03-0.12-0.02-0.1-0.02-0.06-0.04-0.2-0.01-0.04-0.01-0.05-0.01-0.04-0.01-0.03v-0.04l-0.02-0.06v-0.02-0.02-0.01-0.01-0.01c0-0.77 0.62-1.11 1.18-1.11 0.63 0 1.18 0.45 1.36 0.76 0.17 0.32 0.46 1.43 0.63 2.16 0.17 0.66 0.54 2.27 0.76 3.14 0.21 0.77 0.43 1.53 0.6 2.33 0.37 1.44 0.45 1.7 1.45 3.14 0.98 1.39 2.63 3.2 5.23 3.2 2.02 0 2.05-1.78 2.05-2.44 0-2.09-1.48-5.95-2.05-7.42-0.39-0.98-0.53-1.29-0.53-1.89 0-1.84 1.55-2.98 3.32-2.98 3.48 0 5.01 4.79 5.01 5.33 0 0.45-0.45 0.45-0.55 0.45-0.5 0-0.53-0.2-0.67-0.59-0.79-2.79-2.29-4.22-3.68-4.22-0.74 0-0.88 0.48-0.88 1.22 0 0.79 0.17 1.25 0.8 2.82 0.42 1.08 1.86 4.77 1.86 6.72 0 3.39-2.69 3.97-4.53 3.97-2.9 0-4.85-1.76-5.9-3.16-0.25 2.4-2.29 3.16-3.73 3.16-1.5 0-2.3-1.08-2.75-1.87-0.77-1.29-1.25-3.29-1.25-3.46 0-0.45 0.48-0.45 0.59-0.45 0.49 0 0.52 0.11 0.77 1.05 0.52 2.06 1.19 3.76 2.55 3.76 0.9 0 1.14-0.76 1.14-1.7 0-0.67-0.32-1.95-0.57-2.89-0.23-0.95-0.57-2.38-0.76-3.14z"/><path d="m655.23 417.56 0.1 0.05 0.09 0.04 0.05 0.03 0.05 0.02 0.04 0.03 0.05 0.02 0.04 0.03 0.04 0.02 0.12 0.09 0.03 0.03 0.04 0.03 0.09 0.09 0.03 0.04 0.02 0.03 0.03 0.04 0.06 0.12 0.01 0.04 0.02 0.04 0.02 0.1 0.01 0.04 0.01 0.05v0.06 0.05c0 0.6-0.41 0.85-0.95 1.1l-27.6 13.01c-0.65 0.35-0.75 0.35-0.9 0.35-0.55 0-0.99-0.46-0.99-1 0-0.46 0.25-0.75 0.94-1.1l26.16-12.36-26.16-12.36c-0.69-0.34-0.94-0.64-0.94-1.09 0-0.55 0.44-1 0.99-1 0.15 0 0.25 0 0.9 0.36z"/><path d="m696.67 427.67v0.02 0.02 0.02 0.02l-0.01 0.02v0.02l-0.02 0.04v0.02l-0.02 0.04-0.01 0.03-0.01 0.02-0.02 0.02-0.01 0.02-0.05 0.05-0.01 0.02-0.02 0.01-0.02 0.02-0.02 0.01-0.03 0.02-0.04 0.02-0.06 0.02h-0.02l-0.03 0.01h-0.03l-0.03 0.01h-0.02-0.02c-0.55 0-2.53-1.99-3.37-3.44-1.11 2.69-3.05 3.48-4.64 3.48v-1.09c3.23 0 3.93-4.03 3.93-4.37 0-0.32-2.73-11.22-2.89-11.43-0.75-1.39-3.53-4.57-6.32-4.57-2.99 0-3.19 3.84-3.19 4.68 0 2.39 1.43 7.82 2.29 9.91 1.54 3.69 4.13 5.78 6.18 5.78v1.09c-5.88 0-12-7.37-12-14.59 0-4.87 2.93-7.97 6.56-7.97 2.16 0 4.09 1.19 5.89 2.99-0.45-1.74-2.09-8.47-2.25-8.93-0.39-1.39-0.8-1.59-3.58-1.64-0.66 0-1.16 0-1.16-1 0-0.04 0-0.54 0.66-0.54 1.6 0 3.33 0.15 4.99 0.15 1.68 0 3.48-0.15 5.12-0.15 0.25 0 0.89 0 0.89 1 0 0.54-0.48 0.54-1.28 0.54-2.41 0-2.41 0.36-2.41 0.8 0 0.36 0.11 0.66 0.21 1.09z"/><path d="m715.42 403.67 0.3 0.31 0.28 0.32 0.27 0.33 0.26 0.33 0.26 0.34 0.24 0.33 0.23 0.34 0.22 0.34 0.21 0.34 0.38 0.68 0.18 0.33 0.17 0.33 0.16 0.32 0.15 0.32 0.14 0.3 0.13 0.3 0.13 0.29 0.11 0.28 0.1 0.27 0.1 0.25 0.08 0.25 0.08 0.22 0.07 0.21 0.06 0.2 0.05 0.17 0.04 0.16 0.04 0.14 0.03 0.11 0.02 0.1 0.01 0.07v0.05c0 0.45-0.42 0.45-0.59 0.45-0.5 0-0.5-0.09-0.74-0.86-0.62-2.31-1.78-4.44-3.25-6.31-0.03 0.51-0.09 2.86-0.17 3.17-0.51 3.45-3.12 5.67-6.61 5.67l-0.04-0.97c2.79 0 3.59-2.69 3.87-4.84 0.2-1.5 0.14-3.97 0.31-5.81-3.42-2.8-6.37-3.11-7.7-3.11-2.3 0-3.59 1.53-3.59 3.87 0 1 0.5 4.8 2.31 7.2 1.59 2.1 3.58 2.69 4.8 2.69l0.04 0.97c-5.12 0-10.04-4.76-10.04-9.64 0-3.2 2.34-6.06 6.37-6.06 3.22 0 6.11 1.45 8.05 2.95 0.81-2.55 2.59-2.95 3.62-2.95 2.03 0 3.28 1.7 3.28 2.44 0 0.42-0.42 0.42-0.59 0.42-0.45 0-0.52-0.14-0.59-0.36-0.49-1.31-1.57-1.53-1.99-1.53-0.48 0-1.08 0-1.25 4.28z"/><path d="m739.19 418.65v0.37l-0.01 0.39v0.39l-0.02 0.41-0.04 0.84-0.06 0.88-0.08 0.92-0.11 0.95-0.13 0.97-0.16 1.01-0.2 1.02-0.23 1.03-0.27 1.05-0.3 1.06-0.35 1.07-0.39 1.07-0.44 1.06-0.24 0.53-0.25 0.53c-2.98 6.12-7.26 9.36-7.76 9.36-0.3 0-0.5-0.19-0.5-0.49 0-0.15 0-0.25 0.93-1.15 4.89-4.92 7.74-12.85 7.74-23.27 0-8.51-1.85-17.28-8.04-23.56-0.63-0.59-0.63-0.7-0.63-0.84 0-0.3 0.2-0.5 0.5-0.5 0.5 0 4.96 3.39 7.92 9.71 2.53 5.47 3.12 11 3.12 15.19z"/></g>
   </g>
   <path d="m82.977 582.97v-2.1509c5.1086-0.60398 10.217-1.4254 15.326-2.6254 5.1086-1.2 10.217-2.7787 15.326-4.9303 5.1086-2.1516 10.217-4.8783 15.326-8.3463 5.1086-3.468 10.217-7.6804 15.326-12.675 3.7973-3.7124 7.5946-7.8577 11.392-12.355v43.083" opacity=".3"/>
  </g>
  <g transform="matrix(1.1192 0 0 1.1192 37.786 48.208)" stroke="#000">
   <g transform="matrix(.4194 0 0 -.4194 -73.395 283.81)" fill-rule="evenodd" stroke="#000" stroke-miterlimit="10.433" stroke-width="0" xml:space="preserve"><path d="m488.35 417.65h0.16 0.16l0.15 0.01h0.08l0.08 0.01h0.07l0.08 0.01 0.14 0.02 0.21 0.06 0.12 0.04 0.06 0.03 0.05 0.03 0.06 0.04 0.05 0.03 0.04 0.05 0.04 0.04 0.04 0.05 0.04 0.06 0.01 0.03 0.02 0.03 0.01 0.03 0.02 0.03 0.01 0.04 0.01 0.03 0.01 0.04v0.04l0.02 0.08v0.04l0.01 0.04v0.05 0.04c0 1-0.91 1-1.75 1h-26.96c-0.84 0-1.73 0-1.73-1s0.89-1 1.73-1z"/><path d="m516.79 427.67v0.02 0.02 0.02 0.02l-0.01 0.02v0.02l-0.01 0.02v0.02l-0.03 0.06-0.01 0.03-0.02 0.04-0.05 0.05-0.01 0.02-0.02 0.02-0.02 0.01-0.02 0.02-0.02 0.01-0.02 0.02-0.03 0.01-0.02 0.01-0.03 0.01-0.02 0.01h-0.03l-0.03 0.01h-0.03l-0.03 0.01h-0.02-0.02c-0.54 0-2.53-1.99-3.37-3.44-1.11 2.69-3.05 3.48-4.64 3.48v-1.09c3.23 0 3.94-4.03 3.94-4.37 0-0.32-2.74-11.22-2.9-11.43-0.75-1.39-3.53-4.57-6.32-4.57-2.99 0-3.19 3.84-3.19 4.68 0 2.39 1.44 7.82 2.3 9.91 1.53 3.69 4.12 5.78 6.17 5.78v1.09c-5.88 0-12-7.37-12-14.59 0-4.87 2.93-7.97 6.56-7.97 2.16 0 4.09 1.19 5.89 2.99-0.45-1.74-2.09-8.47-2.25-8.93-0.39-1.39-0.8-1.59-3.58-1.64-0.65 0-1.15 0-1.15-1 0-0.04 0-0.54 0.65-0.54 1.6 0 3.33 0.15 4.99 0.15 1.68 0 3.48-0.15 5.12-0.15 0.25 0 0.89 0 0.89 1 0 0.54-0.48 0.54-1.28 0.54-2.41 0-2.41 0.36-2.41 0.8 0 0.36 0.11 0.66 0.21 1.09z"/><path d="m535.54 403.67 0.3 0.31 0.28 0.32 0.54 0.66 0.25 0.34 0.24 0.33 0.23 0.34 0.22 0.34 0.21 0.34 0.2 0.34 0.19 0.34 0.34 0.66 0.16 0.32 0.15 0.32 0.28 0.6 0.12 0.29 0.11 0.28 0.1 0.27 0.1 0.25 0.08 0.25 0.08 0.22 0.07 0.21 0.06 0.2 0.05 0.17 0.05 0.16 0.03 0.14 0.03 0.11 0.02 0.1 0.01 0.07v0.05c0 0.45-0.42 0.45-0.59 0.45-0.5 0-0.5-0.09-0.73-0.86-0.63-2.31-1.79-4.44-3.25-6.31-0.04 0.51-0.1 2.86-0.18 3.17-0.51 3.45-3.12 5.67-6.61 5.67l-0.04-0.97c2.79 0 3.59-2.69 3.87-4.84 0.21-1.5 0.14-3.97 0.31-5.81-3.42-2.8-6.37-3.11-7.7-3.11-2.3 0-3.59 1.53-3.59 3.87 0 1 0.5 4.8 2.31 7.2 1.59 2.1 3.58 2.69 4.8 2.69l0.04 0.97c-5.12 0-10.04-4.76-10.04-9.64 0-3.2 2.34-6.06 6.37-6.06 3.22 0 6.11 1.45 8.05 2.95 0.81-2.55 2.59-2.95 3.62-2.95 2.04 0 3.29 1.7 3.29 2.44 0 0.42-0.43 0.42-0.6 0.42-0.45 0-0.52-0.14-0.59-0.36-0.49-1.31-1.56-1.53-1.99-1.53-0.48 0-1.07 0-1.25 4.28z"/></g>
  </g>
  <g transform="matrix(.55133 0 0 .55133 185.71 375.98)">
   <g id="content" transform="matrix(1.063 0 0 -1.063 -186.02 789.27)" fill-rule="evenodd" stroke="#000" stroke-miterlimit="10.433" stroke-width="0" xml:space="preserve"><path d="m559.84 417.82h0.14 0.14 0.14l0.08 0.01h0.07l0.35 0.05 0.07 0.02 0.12 0.04 0.07 0.02 0.05 0.03 0.06 0.03 0.05 0.04 0.05 0.03 0.09 0.09 0.04 0.05 0.04 0.06 0.01 0.02 0.02 0.03 0.01 0.04 0.02 0.03 0.01 0.03 0.01 0.04 0.01 0.03 0.02 0.08v0.04l0.01 0.04v0.04 0.05 0.04c0 1-0.95 1-1.64 1h-29.84c-0.7 0-1.64 0-1.64-1 0-0.98 0.94-0.98 1.69-0.98z"/><path d="m559.88 408.14 0.07 0.01h0.06 0.14 0.14l0.07 0.01h0.07l0.21 0.03 0.06 0.01 0.07 0.01 0.07 0.02 0.18 0.06 0.06 0.03 0.05 0.03 0.06 0.04 0.04 0.04 0.05 0.04 0.04 0.05 0.02 0.02 0.02 0.03 0.02 0.02 0.04 0.06 0.02 0.06 0.02 0.04 0.02 0.06 0.03 0.12v0.04l0.01 0.04v0.04 0.05 0.04c0 1-0.95 1-1.68 1h-29.75c-0.75 0-1.69 0-1.69-1s0.94-1 1.64-1z"/><polyline points="584 453 619.4 453 619.4 454.8 584 454.8" fill-rule="nonzero"/><path d="m603.53 437.03 3.32 3.31c4.45 4.39 5.81 5.75 8.95 5.93 0.45 0.03 0.88 0.03 0.88 0.73 0 0.41-0.4 0.52-0.5 0.52-1 0-2.22-0.14-3.27-0.14-0.91 0-3.14 0.14-4.05 0.14-0.28 0-0.7-0.11-0.7-0.77 0-0.03 0-0.45 0.53-0.48 0.31-0.04 1.19-0.11 1.19-0.88 0-0.51-0.53-1.08-0.88-1.42-0.28-0.25-4.7-4.56-6-5.89l-3.51 6.83c-0.06 0.11-0.17 0.34-0.17 0.48 0 0.25 0.65 0.8 1.84 0.88 0.25 0 0.74 0.03 0.74 0.76 0 0.03-0.04 0.49-0.6 0.49-0.73 0-1.59-0.11-2.33-0.11-0.73 0-1.53-0.03-2.26-0.03-0.6 0-1.44 0-2.06 0.03-0.6 0.04-1.32 0.11-1.88 0.11-0.17 0-0.74 0-0.74-0.77 0-0.48 0.46-0.48 1.02-0.48 2.02 0 2.19-0.35 2.53-1.05l4.89-9.63-1.95-1.93c-0.67-0.64-2.3-2.21-2.94-2.86-4.25-4.22-5.67-5.69-8.81-5.83-0.49-0.03-0.86-0.03-0.86-0.77 0-0.14 0.09-0.48 0.49-0.48 1 0 2.18 0.14 3.23 0.14 0.59 0 1.47 0 2.06-0.03 0.63-0.05 1.39-0.11 1.99-0.11 0.17 0 0.73 0 0.73 0.73 0 0.49-0.42 0.52-0.64 0.52-0.34 0.05-1.08 0.14-1.08 0.87 0 0.57 0.46 1.02 1.22 1.78l7.08 6.94 4.22-8.26c0.17-0.35 0.2-0.42 0.2-0.46 0-0.2-0.63-0.76-1.84-0.87-0.32-0.03-0.77-0.03-0.77-0.77 0-0.03 0.03-0.48 0.6-0.48 0.73 0 1.6 0.11 2.32 0.11 0.74 0 1.55 0.03 2.27 0.03 0.59 0 1.44 0 2.06-0.03 0.6-0.05 1.33-0.11 1.88-0.11 0.17 0 0.73 0 0.73 0.76 0 0.49-0.45 0.49-1 0.49-2.03 0-2.2 0.39-2.51 0.98z"/><path d="m624.42 421.12-0.02-0.06-0.01-0.07-0.02-0.06-0.01-0.07-0.02-0.06-0.02-0.07-0.03-0.15-0.04-0.14-0.03-0.15-0.06-0.21-0.01-0.07-0.02-0.07-0.01-0.07-0.02-0.06-0.02-0.12-0.02-0.06-0.03-0.15-0.02-0.08v-0.04l-0.01-0.03v-0.02-0.02-0.01-0.01c0-0.54 0.43-0.87 0.92-0.87 0.37 0 0.92 0.2 1.18 0.83 0.04 0.12 0.33 1.29 0.49 1.93 0.84 3.38 0.84 3.43 0.89 3.52 0.33 0.67 2.11 4.16 5.16 4.16 1.21 0 1.75-0.68 1.75-1.79 0-1.42-1.05-3.98-1.63-5.4-0.12-0.3-0.25-0.63-0.25-1.05 0-1.3 1.25-2.2 2.72-2.2 2.66 0 4.03 3.25 4.03 3.87 0 0.35-0.42 0.35-0.51 0.35-0.44 0-0.46-0.1-0.61-0.58-0.47-1.49-1.61-2.78-2.82-2.78-0.56 0-0.75 0.39-0.75 0.94 0 0.53 0.11 0.78 0.33 1.32 0.42 1 1.58 3.83 1.58 5.21 0 1.84-1.33 2.97-3.69 2.97-2.28 0-3.84-1.38-4.72-2.47-0.12 2.04-2.1 2.47-3.03 2.47-2.5 0-3.22-3.82-3.22-3.86 0-0.36 0.41-0.36 0.53-0.36 0.43 0 0.47 0.15 0.57 0.48 0.37 1.44 0.95 2.88 2 2.88 0.84 0 1.01-0.8 1.01-1.32 0-0.34-0.25-1.29-0.39-1.93-0.19-0.68-0.42-1.71-0.54-2.25z"/><path d="m669.96 431.59h0.05 0.06l0.11 0.01h0.12 0.06l0.06 0.01h0.05l0.18 0.03 0.05 0.01 0.06 0.01 0.05 0.02 0.06 0.02 0.1 0.04 0.05 0.03 0.08 0.06 0.1 0.1 0.01 0.02 0.02 0.02 0.01 0.03 0.02 0.02 0.01 0.03 0.01 0.02 0.02 0.03 0.02 0.06v0.03l0.01 0.03 0.01 0.04v0.03l0.01 0.03v0.04 0.04 0.04c0 0.86-0.8 0.86-1.39 0.86h-20.76c-0.57 0-1.4 0-1.4-0.83 0-0.88 0.8-0.88 1.4-0.88z"/><path d="m676.99 418.11-0.01-0.05-0.01-0.04-0.01-0.05-0.03-0.12v-0.03l-0.01-0.04-0.01-0.03v-0.03l-0.01-0.03v-0.03l-0.01-0.03v-0.02-0.03l-0.01-0.02v-0.02-0.02-0.02l-0.01-0.01v-0.02-0.01-0.02-0.01-0.01-0.01-0.01-0.01-0.01c0-0.77 0.62-1.11 1.17-1.11 1.26 0 1.53 1.14 1.67 1.73 0.08 0.17 0.77 2.97 1.61 6.38 1.08-0.72 2.47-1 3.73-1 2.99 0 4.94 2.43 5.02 2.5 0.66-2.41 3.06-2.5 3.58-2.5 1.26 0 2.12 0.76 2.76 1.84 0.77 1.36 1.22 3.34 1.22 3.48 0 0.46-0.45 0.46-0.56 0.46-0.48 0-0.53-0.14-0.77-1.08-0.42-1.67-1.07-3.74-2.54-3.74-0.91 0-1.16 0.77-1.16 1.71 0 0.59 0.28 1.86 0.53 2.76 0.25 0.94 0.6 2.36 0.77 3.13l0.8 3.11c0.21 0.87 0.59 2.4 0.59 2.57 0 0.69-0.55 1.11-1.14 1.11-0.39 0-1.05-0.17-1.44-0.82-0.11-0.22-0.37-1.33-0.56-2.03l-0.72-2.9-1.08-4.36c-0.25-0.85-0.25-0.93-0.56-1.39-1.08-1.53-2.61-2.89-4.61-2.89-2.84 0-2.84 2.47-2.84 3.11 0 0.91 0.09 1.36 0.59 3.24 0.34 1.53 0.41 1.78 0.77 3.14l0.48 1.95c0.17 0.72 0.52 2.05 0.52 2.19 0 0.62-0.49 1.11-1.19 1.11-1.25 0-1.56-1.22-1.67-1.63z"/><path d="m714.33 426.65v0.18 0.21l-0.01 0.24v0.25l-0.02 0.28-0.01 0.3-0.06 0.64-0.05 0.34-0.05 0.35-0.07 0.36-0.07 0.37-0.1 0.36-0.11 0.37-0.12 0.37-0.14 0.36-0.17 0.36-0.18 0.36-0.2 0.34-0.23 0.33-0.25 0.31-0.27 0.3-0.15 0.15-0.16 0.14-0.32 0.26-0.36 0.24-0.19 0.11-0.4 0.2-0.22 0.09-0.22 0.08-0.23 0.08-0.23 0.06-0.25 0.06-0.25 0.05-0.27 0.05-0.27 0.03-0.28 0.02-0.29 0.02h-0.3v-0.82c1.84 0 3.17-0.94 3.65-2.69 0.36-1.27 0.36-3.35 0.36-4.81 0-1.69 0-3.71-0.37-5.21-0.66-2.42-2.64-2.78-3.64-2.78-0.92 0-3.02 0.31-3.64 2.83-0.35 1.34-0.38 3.12-0.38 5.16 0 1.84 0 3.56 0.41 4.98 0.62 2.09 2.55 2.52 3.61 2.52v0.82c-6.5 0-6.5-6.82-6.5-8.62 0-1.81 0-8.52 6.5-8.52s6.5 6.71 6.5 8.52z"/><polyline points="584 413 718.64 413 718.64 415.04 584 415.04" fill-rule="nonzero"/><path d="m620.87 395.1h0.05 0.06 0.05 0.05 0.04 0.05 0.05 0.04 0.05l0.04 0.01h0.04 0.04l0.04 0.01h0.04l0.08 0.01 0.04 0.01 0.03 0.01h0.04l0.03 0.01 0.08 0.02 0.03 0.02 0.03 0.01 0.04 0.01 0.03 0.02 0.04 0.02 0.03 0.02 0.04 0.02 0.03 0.02 0.04 0.02 0.03 0.02c0.45 0.39 0.57 0.88 0.57 1.13 0 0.97-0.91 0.97-1.5 0.97h-8.93c-5.57 0-9.75-5.5-9.75-9.69 0-3.23 2.39-5.67 5.96-5.67l0.03 0.97c-1.88 0-3.46 1.25-3.46 3.73 0 1.05 0.65 8.3 6.63 8.3 1.78 0 3.59-0.67 3.59-3.31 0-0.63-0.31-3.77-2.03-6.11-1.45-1.91-3.41-2.61-4.73-2.61l-0.03-0.97c4.39 0 9.4 3.97 9.4 9.29 0 0.57 0 2.13-1.05 3.71z"/><path d="m642.17 407.04 0.04 0.08 0.01 0.01 0.02 0.04v0.02l0.01 0.02 0.01 0.01 0.01 0.03 0.02 0.03 0.02 0.06 0.01 0.02 0.01 0.03 0.02 0.04v0.02l0.01 0.02v0.02l0.01 0.02v0.01l0.01 0.02v0.01 0.02 0.01l0.01 0.01v0.02 0.02 0.03 0.02 0.03c0 0.54-0.45 0.87-0.84 0.87-0.6 0-0.77-0.42-0.94-0.87l-13-32.44c-0.2-0.45-0.2-0.53-0.2-0.67 0-0.55 0.45-0.88 0.82-0.88 0.6 0 0.77 0.42 0.94 0.88z"/><path d="m660.56 378.18-6.83 13.56c-0.17 0.34-0.28 0.55-0.56 0.55-0.14 0-0.2 0-0.57-0.27l-3.71-2.48c-0.49-0.32-0.49-0.49-0.49-0.6 0-0.2 0.17-0.48 0.49-0.48 0.14 0 0.2 0 0.65 0.31 0.39 0.28 1.39 0.98 1.81 1.27l7.65-15.07c0.23-0.51 0.31-0.59 0.79-0.59 0.31 0 0.69 0 1.05 0.67l17.51 32.61c0.29 0.45 0.29 0.52 0.29 0.7 0 0.55-0.46 0.86-0.83 0.86-0.53 0-0.71-0.31-0.91-0.73z"/><polyline points="678 408 702.72 408 702.72 409.8 678 409.8" fill-rule="nonzero"/><path d="m682.13 384.63-0.01-0.04-0.02-0.05-0.01-0.04-0.02-0.05-0.01-0.05-0.02-0.06-0.02-0.1-0.06-0.22-0.03-0.12-0.03-0.11-0.05-0.25-0.01-0.04-0.01-0.05-0.01-0.04-0.01-0.03-0.01-0.04v-0.03l-0.01-0.03v-0.02-0.02-0.01-0.01-0.01h-0.01c0-0.77 0.63-1.11 1.19-1.11 0.63 0 1.18 0.45 1.36 0.76 0.17 0.32 0.45 1.43 0.63 2.16 0.17 0.66 0.54 2.27 0.76 3.14 0.21 0.77 0.43 1.53 0.6 2.33 0.37 1.44 0.45 1.7 1.45 3.14 0.98 1.39 2.63 3.2 5.23 3.2 2.02 0 2.05-1.78 2.05-2.44 0-2.09-1.48-5.95-2.05-7.42-0.39-0.98-0.53-1.29-0.53-1.89 0-1.84 1.55-2.98 3.31-2.98 3.49 0 5.02 4.79 5.02 5.33 0 0.45-0.45 0.45-0.55 0.45-0.5 0-0.53-0.2-0.67-0.59-0.8-2.79-2.3-4.22-3.68-4.22-0.74 0-0.88 0.48-0.88 1.22 0 0.79 0.17 1.25 0.8 2.82 0.42 1.08 1.86 4.77 1.86 6.72 0 3.39-2.69 3.97-4.53 3.97-2.9 0-4.85-1.76-5.9-3.16-0.25 2.4-2.29 3.16-3.73 3.16-1.5 0-2.3-1.08-2.75-1.87-0.77-1.29-1.25-3.29-1.25-3.46 0-0.45 0.48-0.45 0.59-0.45 0.49 0 0.52 0.11 0.77 1.05 0.52 2.06 1.19 3.76 2.55 3.76 0.9 0 1.14-0.76 1.14-1.7 0-0.67-0.32-1.95-0.57-2.89-0.23-0.95-0.57-2.38-0.76-3.14z"/></g>
  </g>
  <g transform="matrix(.77128 0 0 .77128 149.64 -214.34)" fill="#00f" fill-rule="evenodd" stroke-miterlimit="10.433" stroke-width="0">
   <path d="m297.43 512.12 0.0117-0.041 6e-3 -0.0352 0.0352-0.1406 0.0352-0.129 0.0176-0.0528 0.0176-0.0586 0.0176-0.0528 0.0352-0.0938 0.0352-0.082 0.0528-0.1056 0.0352-0.0586 0.0176-0.0234 0.0234-0.0293 0.0586-0.0586 0.0468-0.0352 0.0234-0.0117 0.0293-0.0176 0.0234-0.0117 0.0293-0.0117 0.0234-6e-3 0.0293-0.0117 0.0352-6e-3 0.0293-0.0117c0.26373-0.0645 1.2307-0.0645 1.8402-0.0645 2.9479 0 4.2606 0.12307 4.2606 2.4028 0 0.42783-0.11135 1.5706-0.22856 2.3325-0.0293 0.11135-0.0938 0.46885-0.0938 0.5509 0 0.17581 0.0938 0.38093 0.34577 0.38093 0.33405 0 0.3868-0.23442 0.43954-0.67396l0.79118-5.0753c0.0352-0.11721 0.0645-0.41024 0.0645-0.50401 2e-5 -0.31647-0.29301-0.31647-0.79116-0.31647h-16.204c-0.70913 0-0.73257 0.0352-0.93769 0.58606l-1.7464 5.1339c-0.0352 0.0645-0.17582 0.46884-0.17582 0.53331 0 0.16996 0.14065 0.31647 0.35163 0.31647 0.29303 0 0.31648-0.14651 0.49229-0.6095 1.5765-4.5244 2.3325-5.0577 6.6576-5.0577h1.137c0.82048 0 0.82048 0.12307 0.82048 0.35163 0 0.18168-0.0879 0.52746-0.11721 0.6095l-3.909 15.595c-0.26373 1.0842-0.3575 1.4007-3.4812 1.4007-1.0549 0-1.2249 0-1.2249 0.56261 0 0.34578 0.31647 0.34578 0.49229 0.34578 0.79704 0 1.6117-0.0528 2.397-0.0528 0.82048 0 1.6703-0.041 2.4849-0.041s1.6292 0.041 2.4263 0.041c0.84392 0 1.723 0.0528 2.5376 0.0528 0.29303 0 0.6388 0 0.6388-0.58606 0-0.32233-0.22856-0.32233-0.99044-0.32233-0.73257 0-1.1076 0-1.8637-0.0528-0.85564-0.0938-1.0842-0.17582-1.0842-0.6388 0-0.041 0-0.18754 0.11135-0.61536z"/>
   <path d="m304.54 532.98-6e-3 0.0234-0.0117 0.0293-6e-3 0.0293-0.0117 0.0234-6e-3 0.0293-6e-3 0.0352-0.0117 0.0293-6e-3 0.0293-0.0352 0.129-0.0176 0.0703-0.0117 0.0645-0.0117 0.0293-0.024 0.1172-6e-3 0.0234-6e-3 0.0293-6e-3 0.0234-6e-3 0.0176v0.0234l-0.012 0.0352v0.0117 0.0117 6e-3 6e-3 6e-3c0 0.45127 0.36335 0.65052 0.69154 0.65052 0.36922 0 0.69155-0.26372 0.79704-0.4454 0.0996-0.18754 0.26959-0.8322 0.36922-1.2659 0.0996-0.3868 0.31647-1.3245 0.4454-1.8402 0.12307-0.45126 0.252-0.89667 0.35163-1.3655 0.21685-0.84393 0.26373-0.9963 0.84979-1.8402 0.57433-0.81462 1.5413-1.8754 3.0651-1.8754 1.1838 0 1.2014 1.0432 1.2014 1.43 0 1.2249-0.86736 3.487-1.2014 4.3486-0.22856 0.57433-0.31061 0.75601-0.31061 1.1076 0 1.0784 0.90839 1.7464 1.9457 1.7464 2.0395 0 2.9362-2.8072 2.9362-3.1237 0-0.26373-0.26373-0.26373-0.32233-0.26373-0.29303 0-0.31061 0.11722-0.39266 0.35164-0.46298 1.6292-1.3421 2.4673-2.1567 2.4673-0.43368 0-0.51573-0.28131-0.51573-0.70913 0-0.46885 0.0996-0.73257 0.46885-1.6585 0.24614-0.63294 1.0901-2.7955 1.0901-3.9383 0-1.9867-1.5765-2.3266-2.6548-2.3266-1.6996 0-2.8424 1.0373-3.4577 1.8519-0.14652-1.4007-1.3421-1.8519-2.186-1.8519-0.87908 0-1.3479 0.63294-1.6116 1.0959-0.45127 0.75601-0.73257 1.9281-0.73257 2.0278 0 0.26373 0.2813 0.26373 0.34577 0.26373 0.28717 0 0.30475-0.0645 0.45126-0.61536 0.30475-1.2073 0.69741-2.2036 1.4944-2.2036 0.52745 0 0.6681 0.4454 0.6681 0.99629 0 0.39266-0.18753 1.1428-0.33405 1.6937-0.13479 0.56261-0.33405 1.3948-0.4454 1.8402z"/>
  </g>
  <path d="m376.15 144.27 0.46177 31.206" fill="none" stroke="#00f" stroke-width="2"/>
  <path d="m149.17 142.51 0.46177 15.899" fill="none" stroke="#00f" stroke-width="2"/>
  <g>
   <g transform="matrix(.80234 0 0 .80234 52.951 -233.32)" fill="#00f" fill-rule="evenodd" stroke-miterlimit="10.433" stroke-width="0">
    <g transform="translate(-180.04 -17.153)">
     <path d="m297.43 512.12 0.0117-0.041 6e-3 -0.0352 0.0352-0.1406 0.0352-0.129 0.0176-0.0528 0.0176-0.0586 0.0176-0.0528 0.0352-0.0938 0.0352-0.082 0.0528-0.1056 0.0352-0.0586 0.0176-0.0234 0.0234-0.0293 0.0586-0.0586 0.0468-0.0352 0.0234-0.0117 0.0293-0.0176 0.0234-0.0117 0.0293-0.0117 0.0234-6e-3 0.0293-0.0117 0.0352-6e-3 0.0293-0.0117c0.26373-0.0645 1.2307-0.0645 1.8402-0.0645 2.9479 0 4.2606 0.12307 4.2606 2.4028 0 0.42783-0.11135 1.5706-0.22856 2.3325-0.0293 0.11135-0.0938 0.46885-0.0938 0.5509 0 0.17581 0.0938 0.38093 0.34577 0.38093 0.33405 0 0.3868-0.23442 0.43954-0.67396l0.79118-5.0753c0.0352-0.11721 0.0645-0.41024 0.0645-0.50401 2e-5 -0.31647-0.29301-0.31647-0.79116-0.31647h-16.204c-0.70913 0-0.73257 0.0352-0.93769 0.58606l-1.7464 5.1339c-0.0352 0.0645-0.17582 0.46884-0.17582 0.53331 0 0.16996 0.14065 0.31647 0.35163 0.31647 0.29303 0 0.31648-0.14651 0.49229-0.6095 1.5765-4.5244 2.3325-5.0577 6.6576-5.0577h1.137c0.82048 0 0.82048 0.12307 0.82048 0.35163 0 0.18168-0.0879 0.52746-0.11721 0.6095l-3.909 15.595c-0.26373 1.0842-0.3575 1.4007-3.4812 1.4007-1.0549 0-1.2249 0-1.2249 0.56261 0 0.34578 0.31647 0.34578 0.49229 0.34578 0.79704 0 1.6117-0.0528 2.397-0.0528 0.82048 0 1.6703-0.041 2.4849-0.041s1.6292 0.041 2.4263 0.041c0.84392 0 1.723 0.0528 2.5376 0.0528 0.29303 0 0.6388 0 0.6388-0.58606 0-0.32233-0.22856-0.32233-0.99044-0.32233-0.73257 0-1.1076 0-1.8637-0.0528-0.85564-0.0938-1.0842-0.17582-1.0842-0.6388 0-0.041 0-0.18754 0.11135-0.61536z"/>
     <path d="m304.54 532.98-6e-3 0.0234-0.0117 0.0293-6e-3 0.0293-0.0117 0.0234-6e-3 0.0293-6e-3 0.0352-0.0117 0.0293-6e-3 0.0293-0.0352 0.129-0.0176 0.0703-0.0117 0.0645-0.0117 0.0293-0.024 0.1172-6e-3 0.0234-6e-3 0.0293-6e-3 0.0234-6e-3 0.0176v0.0234l-0.012 0.0352v0.0117 0.0117 6e-3 6e-3 6e-3c0 0.45127 0.36335 0.65052 0.69154 0.65052 0.36922 0 0.69155-0.26372 0.79704-0.4454 0.0996-0.18754 0.26959-0.8322 0.36922-1.2659 0.0996-0.3868 0.31647-1.3245 0.4454-1.8402 0.12307-0.45126 0.252-0.89667 0.35163-1.3655 0.21685-0.84393 0.26373-0.9963 0.84979-1.8402 0.57433-0.81462 1.5413-1.8754 3.0651-1.8754 1.1838 0 1.2014 1.0432 1.2014 1.43 0 1.2249-0.86736 3.487-1.2014 4.3486-0.22856 0.57433-0.31061 0.75601-0.31061 1.1076 0 1.0784 0.90839 1.7464 1.9457 1.7464 2.0395 0 2.9362-2.8072 2.9362-3.1237 0-0.26373-0.26373-0.26373-0.32233-0.26373-0.29303 0-0.31061 0.11722-0.39266 0.35164-0.46298 1.6292-1.3421 2.4673-2.1567 2.4673-0.43368 0-0.51573-0.28131-0.51573-0.70913 0-0.46885 0.0996-0.73257 0.46885-1.6585 0.24614-0.63294 1.0901-2.7955 1.0901-3.9383 0-1.9867-1.5765-2.3266-2.6548-2.3266-1.6996 0-2.8424 1.0373-3.4577 1.8519-0.14652-1.4007-1.3421-1.8519-2.186-1.8519-0.87908 0-1.3479 0.63294-1.6116 1.0959-0.45127 0.75601-0.73257 1.9281-0.73257 2.0278 0 0.26373 0.2813 0.26373 0.34577 0.26373 0.28717 0 0.30475-0.0645 0.45126-0.61536 0.30475-1.2073 0.69741-2.2036 1.4944-2.2036 0.52745 0 0.6681 0.4454 0.6681 0.99629 0 0.39266-0.18753 1.1428-0.33405 1.6937-0.13479 0.56261-0.33405 1.3948-0.4454 1.8402z"/>
    </g>
    <path d="m100.59 501.84h0.0751 0.0751l0.0704-5e-3h0.0375l0.0376-5e-3h0.0329l0.0376-5e-3 0.0658-0.01 0.0987-0.027 0.0564-0.018 0.0282-0.0141 0.0235-0.0141 0.0282-0.0188 0.0235-0.0141 0.0188-0.0235 0.0188-0.0188 0.0188-0.0235 0.018-0.0282 5e-3 -0.0141 9e-3 -0.0141 5e-3 -0.0141 9e-3 -0.0141 5e-3 -0.0188 5e-3 -0.0141 5e-3 -0.0188v-0.0188l0.01-0.0376v-0.0188l5e-3 -0.0188v-0.0235-0.0188c-9e-5 -0.4694-0.42724-0.4694-0.82154-0.4694h-12.655c-0.3943 0-0.81206 0-0.81206 0.4694 0 0.46941 0.41776 0.46941 0.81206 0.46941z"/>
   </g>
   <path d="m499.42 160.93 0.46177 16.904" fill-rule="evenodd" stroke="#ff5f00" stroke-width="2"/>
   <path d="m498.38 196.99-0.0925 0.14595-0.0876 0.14109-0.0925 0.13623-0.0925 0.12651-0.0876 0.12165-0.0925 0.11193-0.0925 0.10707-0.0876 0.10222-0.0925 0.0974-0.0925 0.0876-0.0876 0.0828-0.0925 0.0779-0.0925 0.0731-0.0876 0.0682-0.0925 0.0633-0.0925 0.0585-0.0925 0.0536-0.0925 0.0488-0.185 0.0874-0.0925 0.034-0.0974 0.034-0.0925 0.034-0.0974 0.0243-0.0925 0.0243-0.1948 0.0388-0.0925 0.0146-0.19955 0.0243-0.19469 0.0146c-0.29689 0.0245-0.51105 0.0245-0.51105 0.48678 0 0.14595 0.12165 0.2677 0.3115 0.2677 0.65218 0 1.4066-0.0779 2.0831-0.0779 0.79821 0 1.65 0.0779 2.4287 0.0779 0.14109 0 0.46237 0 0.46237-0.46239 0-0.26768-0.21902-0.29203-0.38936-0.29203-0.55973-0.0437-1.1389-0.24335-1.1389-0.84199 0-0.29691 0.14595-0.56459 0.33582-0.89555l1.8446-3.1101h6.0839l-0.0682-0.74952h-5.5582l4.7844-8.0064 0.77386 8.0064 0.0682 0.74952c0.0536 0.50619 0.38936 3.8061 0.38936 4.0494 0 0.73006-1.2606 0.79819-1.7424 0.79819-0.34069 0-0.58405 0-0.58405 0.48672 0 0.2677 0.28716 0.2677 0.3407 0.2677 0.98803 0 2.0393-0.0779 3.0273-0.0779 0.60838 0 2.1366 0.0779 2.745 0.0779 0.14595 0 0.43318 0 0.43318-0.48672 0-0.2677-0.24335-0.2677-0.55485-0.2677-1.5039 0-1.5039-0.16546-1.5818-0.8712l-1.4747-15.151c-0.0536-0.48671-0.0536-0.58405-0.46237-0.58405-0.38937 0-0.48184 0.16548-0.63272 0.40883z" fill="#ff5f00" stroke-width="0"/>
   <path d="m308.36 160.93 0.46177 16.904" fill-rule="evenodd" stroke="#ff5f00" stroke-width="2"/>
   <g transform="matrix(1.6314 0 0 1.6314 297.03 62.394)" fill="#ff5f00">
    <g transform="matrix(.30047 0 0 -.30047 -52.582 380.98)" fill="#ff5f00" fill-rule="evenodd" stroke="#000" stroke-miterlimit="10.433" xml:space="preserve"><path d="m500.8 410.09-0.04-0.18-0.05-0.17-0.04-0.16-0.04-0.15-0.05-0.15-0.04-0.13-0.05-0.13-0.05-0.12-0.06-0.11-0.05-0.11-0.07-0.1-0.07-0.09-0.08-0.09-0.08-0.07-0.1-0.08-0.1-0.06-0.12-0.07-0.12-0.05-0.28-0.1-0.17-0.04-0.08-0.02-0.09-0.01-0.09-0.02-0.1-0.02-0.1-0.01-0.22-0.02-0.11-0.02-0.24-0.02h-0.13l-0.26-0.02h-0.14l-0.15-0.01h-0.15l-0.15-0.01h-0.16-0.17-0.17-0.18-0.18c-0.84 0-1.34 0-1.34-1 0-0.55 0.45-0.55 1.34-0.55h17.78c7.88 0 13.75 5.87 13.75 10.76 0 3.58-2.89 6.47-7.71 7.02 5.18 0.95 10.42 4.64 10.42 9.38 0 3.68-3.3 6.87-9.28 6.87l-0.69-1.55c4.37 0 5.42-2.93 5.42-5.12 0-4.39-4.28-9.13-10.36-9.13h-7.26l-0.3-1.09h9.41c4.78 0 5.73-3.69 5.73-5.83 0-4.94-4.44-9.76-10.31-9.76h-6.78c-0.69 0-0.8 0-1.1 0.04-0.5 0.05-0.64 0.1-0.64 0.5 0 0.14 0 0.25 0.25 1.14l3.44 13.91 0.3 1.09 3.07 12.36c0.46 1.74 0.55 1.89 2.71 1.89h6.42l0.69 1.55h-16.74c-0.94 0-1.44 0-1.44-1 0-0.55 0.44-0.55 1.4-0.55 0.09 0 1.04 0 1.89-0.09 0.89-0.11 1.34-0.16 1.34-0.8 0-0.2-0.05-0.36-0.2-0.95z" fill="#ff5f00" stroke-width="0"/></g>
   </g>
   <path d="m315.15 183.3v-9e-3 -9e-3 -5e-3 -9e-3l-5e-3 -9e-3v-9e-3 -9e-3l-0.01-0.018v-9e-3l-0.02-0.036-9e-3 -9e-3 -5e-3 -9e-3 -9e-3 -9e-3 -5e-3 -9e-3 -0.018-0.018-9e-3 -5e-3 -0.0139-9e-3 -9e-3 -5e-3 -0.0139-9e-3 -0.0139-5e-3 -5e-3 -5e-3h-9e-3l-5e-3 -5e-3h-9e-3l-5e-3 -5e-3h-9e-3 -9e-3l-9e-3 -5e-3h-9e-3 -5e-3 -9e-3 -9e-3 -9e-3 -9e-3c-0.0695 0-0.0972 0.0185-0.34728 0.27318l-1.6161 1.7781c-0.20373-0.32411-1.2641-2.0512-3.8247-2.0512-5.149 0-10.34 5.098-10.34 10.446 0 3.8108 2.7273 6.3204 6.2556 6.3204 2.0049 0 3.7552-0.91683 4.9776-1.9818 2.1485-1.8938 2.5421-3.9914 2.5421-4.0562 0-0.23151-0.23151-0.23151-0.27782-0.23151-0.13423 0-0.25004 0.0416-0.30097 0.23151-0.20374 0.66677-0.74086 2.3059-2.3337 3.6441-1.5882 1.2872-3.0422 1.6808-4.2368 1.6808-2.0744 0-4.5239-1.2039-4.5239-4.7971 0-1.3196 0.48619-5.0517 2.7875-7.7512 1.4123-1.6392 3.5793-2.7921 5.6259-2.7921 2.3615 0 3.7228 1.7734 3.7228 4.4498 0 0.92608-0.0741 0.94923-0.0741 1.1807s0.25466 0.23151 0.34728 0.23151c0.29633 0 0.29633-0.0508 0.41209-0.46302z" fill="#ff5f00" stroke-width="0"/>
   <g transform="matrix(2.297 0 0 2.297 230.57 149.03)" fill="#00f" stroke="#00f">
    <g transform="matrix(.26415 0 0 -.26415 -46.226 255.65)" fill="#00f" fill-rule="evenodd" stroke="#00f" stroke-miterlimit="10.433" xml:space="preserve"><path d="m472.16 421.25 0.03 0.13 0.04 0.15 0.04 0.16 0.04 0.18 0.06 0.19 0.06 0.21 0.06 0.22 0.07 0.22 0.08 0.23 0.09 0.24 0.1 0.25 0.1 0.24 0.11 0.25 0.12 0.25 0.13 0.25 0.14 0.25 0.3 0.48 0.17 0.23 0.36 0.44 0.2 0.2 0.21 0.19 0.22 0.18 0.23 0.16 0.25 0.14 0.12 0.07 0.13 0.06 0.14 0.05 0.13 0.05 0.14 0.05 0.14 0.04 0.3 0.06 0.15 0.02 0.16 0.02 0.16 0.01h0.16c0.25 0 1.44 0 2.48-0.64-1.39-0.25-2.39-1.5-2.39-2.69 0-0.79 0.55-1.75 1.89-1.75 1.1 0 2.69 0.89 2.69 2.89 0 2.6-2.94 3.28-4.63 3.28-2.89 0-4.64-2.64-5.23-3.78-1.25 3.28-3.94 3.78-5.37 3.78-5.19 0-8.04-6.42-8.04-7.67 0-0.5 0.5-0.5 0.61-0.5 0.39 0 0.55 0.11 0.64 0.55 1.69 5.28 4.99 6.53 6.68 6.53 0.95 0 2.68-0.44 2.68-3.33 0-1.54-0.84-4.89-2.68-11.86-0.8-3.09-2.54-5.18-4.74-5.18-0.3 0-1.44 0-2.48 0.65 1.25 0.24 2.34 1.28 2.34 2.69 0 1.34-1.09 1.73-1.84 1.73-1.5 0-2.75-1.29-2.75-2.89 0-2.28 2.5-3.28 4.68-3.28 3.3 0 5.08 3.49 5.24 3.78 0.59-1.84 2.39-3.78 5.37-3.78 5.14 0 7.99 6.42 7.99 7.67 0 0.5-0.45 0.5-0.61 0.5-0.44 0-0.55-0.2-0.64-0.54-1.64-5.33-5.03-6.53-6.63-6.53-1.95 0-2.75 1.59-2.75 3.29 0 1.1 0.3 2.19 0.86 4.38z" fill="#00f" stroke-width="0"/></g>
   </g>
   <path d="m231.67 490.18v-0.1164-0.13579l-6e-3 -0.15519-6e-3 -0.16167-6e-3 -0.18106-0.0129-0.19399-0.0129-0.20046-0.0194-0.21339-0.0323-0.21986-0.0323-0.22633-0.0453-0.23279-0.0517-0.23926-0.0582-0.23279-0.0711-0.23926-0.0776-0.23925-0.097-0.2328-0.10347-0.23279-0.11639-0.22632-0.12934-0.22633-0.14873-0.21339-0.16165-0.20047-0.18106-0.19399-0.0905-0.097-0.10346-0.0905-0.10346-0.0841-0.10993-0.0841-0.10993-0.0776-0.1164-0.0776-0.12286-0.0711-0.25866-0.1294-0.14226-0.0582-0.14226-0.0517-0.14873-0.0517-0.14873-0.0388-0.16166-0.0388-0.16813-0.0323-0.16812-0.0323-0.1746-0.0194-0.18106-0.0129-0.18752-0.0129h-0.194c-4.2032 0-4.2032 4.4166-4.2032 5.5741 0 1.1704 0 5.5094 4.2032 5.5094v-0.53671c-0.60138 0-1.9529-0.20046-2.3538-1.83-0.22632-0.8665-0.24572-2.0175-0.24572-3.3302 0-1.1963 0-2.3085 0.26512-3.2268 0.40092-1.3515 1.649-1.6231 2.3344-1.6231 1.1898 0 2.0499 0.60137 2.3602 1.733 0.23279 0.82125 0.23279 2.1663 0.23279 3.1168 0 1.0864 0 2.3926-0.23925 3.3626-0.42679 1.5649-1.7072 1.7977-2.3538 1.7977v0.53671c4.2032 0 4.2032-4.339 4.2032-5.5094z" fill-rule="evenodd" opacity=".568" stroke-miterlimit="10.433" stroke-width="0"/>
   <g transform="matrix(2.4073 0 0 2.4073 -25.515 194.6)" fill="#00f">
    <g transform="matrix(.26415 0 0 -.26415 -46.226 255.65)" fill="#00f" fill-rule="evenodd" stroke="#000" stroke-miterlimit="10.433" stroke-width="0" xml:space="preserve"><path d="m488.35 417.65h0.16 0.16l0.15 0.01h0.08l0.08 0.01h0.07l0.08 0.01 0.14 0.02 0.21 0.06 0.12 0.04 0.06 0.03 0.05 0.03 0.06 0.04 0.05 0.03 0.04 0.05 0.04 0.04 0.04 0.05 0.04 0.06 0.01 0.03 0.02 0.03 0.01 0.03 0.02 0.03 0.01 0.04 0.01 0.03 0.01 0.04v0.04l0.02 0.08v0.04l0.01 0.04v0.05 0.04c0 1-0.91 1-1.75 1h-26.96c-0.84 0-1.73 0-1.73-1s0.89-1 1.73-1z"/><path d="m510.92 421.25 0.03 0.13 0.03 0.15 0.05 0.16 0.04 0.18 0.05 0.19 0.06 0.21 0.14 0.44 0.08 0.23 0.09 0.24 0.09 0.25 0.11 0.24 0.11 0.25 0.12 0.25 0.13 0.25 0.14 0.25 0.14 0.24 0.16 0.24 0.17 0.23 0.17 0.22 0.19 0.22 0.2 0.2 0.21 0.19 0.22 0.18 0.23 0.16 0.25 0.14 0.12 0.07 0.13 0.06 0.13 0.05 0.28 0.1 0.14 0.04 0.3 0.06 0.3 0.04 0.16 0.01h0.16c0.25 0 1.44 0 2.49-0.64-1.39-0.25-2.39-1.5-2.39-2.69 0-0.79 0.55-1.75 1.89-1.75 1.09 0 2.69 0.89 2.69 2.89 0 2.6-2.94 3.28-4.63 3.28-2.89 0-4.64-2.64-5.23-3.78-1.25 3.28-3.94 3.78-5.38 3.78-5.18 0-8.03-6.42-8.03-7.67 0-0.5 0.5-0.5 0.61-0.5 0.39 0 0.55 0.11 0.64 0.55 1.69 5.28 4.99 6.53 6.67 6.53 0.96 0 2.69-0.44 2.69-3.33 0-1.54-0.84-4.89-2.69-11.86-0.79-3.09-2.53-5.18-4.73-5.18-0.3 0-1.44 0-2.49 0.65 1.25 0.24 2.35 1.28 2.35 2.69 0 1.34-1.1 1.73-1.85 1.73-1.5 0-2.75-1.29-2.75-2.89 0-2.28 2.5-3.28 4.69-3.28 3.3 0 5.08 3.49 5.24 3.78 0.59-1.84 2.39-3.78 5.37-3.78 5.14 0 7.99 6.42 7.99 7.67 0 0.5-0.46 0.5-0.61 0.5-0.44 0-0.55-0.2-0.64-0.54-1.65-5.33-5.03-6.53-6.63-6.53-1.95 0-2.75 1.59-2.75 3.29 0 1.1 0.3 2.19 0.86 4.38z"/></g>
   </g>
   <g transform="matrix(1.3248 0 0 1.3248 216.79 245.3)" fill="#00f">
    <g transform="matrix(.26415 0 0 -.26415 -46.226 255.65)" fill="#00f" fill-rule="evenodd" stroke="#000" stroke-miterlimit="10.433" stroke-width="0" xml:space="preserve"><path d="m473.8 426.12h4.28c1 0 1.5 0 1.5 1 0 0.55-0.5 0.55-1.34 0.55h-4.14l1.04 5.69c0.21 1.04 0.91 4.57 1.21 5.17 0.45 0.95 1.29 1.7 2.34 1.7 0.19 0 1.49 0 2.44-0.91-2.19-0.18-2.69-1.93-2.69-2.68 0-1.14 0.89-1.74 1.85-1.74 1.29 0 2.73 1.1 2.73 2.99 0 2.29-2.3 3.43-4.33 3.43-1.7 0-4.84-0.89-6.33-5.82-0.29-1.05-0.45-1.55-1.64-7.83h-3.43c-0.96 0-1.5 0-1.5-0.94 0-0.61 0.45-0.61 1.39-0.61h3.29l-3.75-19.67c-0.89-4.83-1.73-9.38-4.33-9.38-0.2 0-1.43 0-2.39 0.91 2.3 0.14 2.74 1.94 2.74 2.69 0 1.14-0.89 1.75-1.85 1.75-1.29 0-2.73-1.1-2.73-3 0-2.24 2.19-3.44 4.23-3.44 2.74 0 4.74 2.94 5.63 4.84 1.59 3.14 2.75 9.16 2.8 9.52z"/><path d="m501.77 394.25v0.02l-0.01 0.03v0.01 0.02 0.01l-0.01 0.02v0.01l-0.04 0.08-0.01 0.03-0.02 0.02-0.06 0.09-0.03 0.03-0.03 0.04-0.02 0.02-0.01 0.02-0.06 0.06-0.02 0.03-0.04 0.04-0.02 0.03-0.03 0.02-0.02 0.03-0.03 0.03-0.02 0.03-0.22 0.22-0.03 0.04-0.04 0.03-0.08 0.08c-6.22 6.28-7.81 15.69-7.81 23.31 0 8.67 1.89 17.35 8.01 23.56 0.65 0.61 0.65 0.71 0.65 0.86 0 0.35-0.19 0.49-0.49 0.49-0.5 0-4.98-3.38-7.92-9.7-2.55-5.49-3.14-11.02-3.14-15.21 0-3.89 0.55-9.9 3.28-15.54 2.98-6.13 7.28-9.36 7.78-9.36 0.3 0 0.49 0.14 0.49 0.5z"/><path d="m521.24 421.25 0.03 0.13 0.03 0.15 0.05 0.16 0.04 0.18 0.05 0.19 0.06 0.21 0.14 0.44 0.08 0.23 0.09 0.24 0.09 0.25 0.11 0.24 0.11 0.25 0.12 0.25 0.13 0.25 0.14 0.25 0.14 0.24 0.16 0.24 0.17 0.23 0.17 0.22 0.19 0.22 0.2 0.2 0.21 0.19 0.22 0.18 0.23 0.16 0.25 0.14 0.12 0.07 0.13 0.06 0.14 0.05 0.13 0.05 0.14 0.05 0.14 0.04 0.3 0.06 0.3 0.04 0.16 0.01h0.17c0.25 0 1.43 0 2.48-0.64-1.39-0.25-2.39-1.5-2.39-2.69 0-0.79 0.55-1.75 1.89-1.75 1.09 0 2.69 0.89 2.69 2.89 0 2.6-2.94 3.28-4.63 3.28-2.89 0-4.64-2.64-5.23-3.78-1.25 3.28-3.94 3.78-5.38 3.78-5.18 0-8.03-6.42-8.03-7.67 0-0.5 0.5-0.5 0.61-0.5 0.39 0 0.55 0.11 0.64 0.55 1.69 5.28 4.99 6.53 6.67 6.53 0.96 0 2.69-0.44 2.69-3.33 0-1.54-0.84-4.89-2.69-11.86-0.79-3.09-2.53-5.18-4.73-5.18-0.3 0-1.44 0-2.48 0.65 1.25 0.24 2.34 1.28 2.34 2.69 0 1.34-1.09 1.73-1.84 1.73-1.5 0-2.75-1.29-2.75-2.89 0-2.28 2.5-3.28 4.68-3.28 3.3 0 5.08 3.49 5.24 3.78 0.59-1.84 2.39-3.78 5.37-3.78 5.14 0 7.99 6.42 7.99 7.67 0 0.5-0.46 0.5-0.61 0.5-0.44 0-0.55-0.2-0.64-0.54-1.64-5.33-5.04-6.53-6.63-6.53-1.95 0-2.75 1.59-2.75 3.29 0 1.1 0.3 2.19 0.86 4.38z"/><path d="m547.43 418.65-0.01 0.37v0.39l-0.01 0.39-0.01 0.41-0.04 0.84-0.06 0.88-0.08 0.92-0.11 0.95-0.14 0.97-0.16 1.01-0.2 1.02-0.23 1.03-0.26 1.05-0.31 1.06-0.35 1.07-0.39 1.07-0.21 0.53-0.23 0.53-0.48 1.06c-2.99 6.12-7.27 9.36-7.77 9.36-0.3 0-0.5-0.19-0.5-0.49 0-0.15 0-0.25 0.94-1.15 4.89-4.92 7.73-12.85 7.73-23.27 0-8.51-1.84-17.28-8.03-23.56-0.64-0.59-0.64-0.7-0.64-0.84 0-0.3 0.2-0.5 0.5-0.5 0.5 0 4.97 3.39 7.92 9.71 2.53 5.47 3.13 11 3.13 15.19z"/></g>
   </g>
   <g transform="matrix(1.5542 0 0 1.5542 133.96 47.558)" fill="#ff5f00">
    <g transform="matrix(.26415 0 0 -.26415 -46.226 255.65)" fill="#ff5f00" fill-rule="evenodd" stroke="#000" stroke-miterlimit="10.433" stroke-width="0" xml:space="preserve"><path d="m478.99 424.98 0.01 0.06 0.02 0.1 0.01 0.06 0.03 0.15 0.02 0.06 0.01 0.05 0.01 0.06 0.01 0.05v0.06l0.01 0.06v0.06l0.01 0.03v0.03 0.03 0.03c0 0.86-0.59 1.36-1.44 1.36-0.5 0-1.84-0.36-2.05-2.16-0.89 1.85-2.64 3.14-4.62 3.14l0.05-1.09c3.28 0 3.98-4.03 3.98-4.28s-0.09-0.55-0.16-0.75l-2.39-9.52c-0.29-1.29-1.43-2.53-2.53-3.48-1.04-0.89-2.59-1.8-4.04-1.8-2.49 0-3.24 2.6-3.24 4.58 0 2.41 1.45 8.28 2.8 10.81 1.34 2.46 3.48 4.44 5.58 4.44l-0.05 1.09c-5.69 0-11.86-6.96-11.86-14.14 0-4.93 3.03-7.87 6.63-7.87 2.93 0 5.28 2.34 5.78 2.89l0.04-0.05c-1.04-4.43-1.64-6.48-1.64-6.58-0.2-0.45-1.89-5.39-7.17-5.39-0.95 0-2.59 0.07-4 0.5 1.5 0.46 2.05 1.75 2.05 2.6 0 0.79-0.55 1.75-1.89 1.75-1.1 0-2.69-0.91-2.69-2.89 0-2.05 1.84-3.05 6.62-3.05 6.22 0 9.82 3.89 10.57 6.88z"/><path d="m497.56 394.25v0.02 0.03 0.01 0.02l-0.01 0.01v0.02l-0.01 0.01v0.02l-0.03 0.06-0.02 0.03-0.01 0.02-0.04 0.06-0.03 0.03-0.02 0.03-0.03 0.04-0.04 0.04-0.01 0.02-0.04 0.04-0.02 0.03-0.09 0.09-0.02 0.03-0.06 0.06-0.02 0.03-0.09 0.09-0.04 0.03-0.03 0.04-0.18 0.18c-6.22 6.28-7.81 15.69-7.81 23.31 0 8.67 1.89 17.35 8.01 23.56 0.64 0.61 0.64 0.71 0.64 0.86 0 0.35-0.18 0.49-0.48 0.49-0.5 0-4.99-3.38-7.92-9.7-2.55-5.49-3.14-11.02-3.14-15.21 0-3.89 0.54-9.9 3.28-15.54 2.98-6.13 7.28-9.36 7.78-9.36 0.3 0 0.48 0.14 0.48 0.5z"/><path d="m517.03 421.25 0.04 0.13 0.03 0.15 0.04 0.16 0.05 0.18 0.05 0.19 0.06 0.21 0.14 0.44 0.08 0.23 0.09 0.24 0.09 0.25 0.11 0.24 0.11 0.25 0.12 0.25 0.26 0.5 0.15 0.24 0.16 0.24 0.16 0.23 0.18 0.22 0.19 0.22 0.2 0.2 0.21 0.19 0.22 0.18 0.23 0.16 0.24 0.14 0.13 0.07 0.13 0.06 0.13 0.05 0.28 0.1 0.14 0.04 0.15 0.03 0.14 0.03 0.16 0.02 0.15 0.02 0.16 0.01h0.16c0.25 0 1.44 0 2.49-0.64-1.39-0.25-2.39-1.5-2.39-2.69 0-0.79 0.54-1.75 1.89-1.75 1.09 0 2.69 0.89 2.69 2.89 0 2.6-2.94 3.28-4.63 3.28-2.89 0-4.64-2.64-5.24-3.78-1.25 3.28-3.93 3.78-5.37 3.78-5.19 0-8.03-6.42-8.03-7.67 0-0.5 0.5-0.5 0.61-0.5 0.39 0 0.55 0.11 0.64 0.55 1.69 5.28 4.98 6.53 6.67 6.53 0.95 0 2.69-0.44 2.69-3.33 0-1.54-0.84-4.89-2.69-11.86-0.8-3.09-2.53-5.18-4.73-5.18-0.3 0-1.44 0-2.49 0.65 1.25 0.24 2.35 1.28 2.35 2.69 0 1.34-1.1 1.73-1.85 1.73-1.5 0-2.75-1.29-2.75-2.89 0-2.28 2.5-3.28 4.69-3.28 3.3 0 5.08 3.49 5.23 3.78 0.6-1.84 2.4-3.78 5.38-3.78 5.14 0 7.98 6.42 7.98 7.67 0 0.5-0.45 0.5-0.61 0.5-0.43 0-0.54-0.2-0.64-0.54-1.64-5.33-5.03-6.53-6.62-6.53-1.96 0-2.75 1.59-2.75 3.29 0 1.1 0.29 2.19 0.86 4.38z"/><path d="m543.22 418.65v0.37 0.39l-0.01 0.39-0.02 0.41-0.04 0.84-0.06 0.88-0.08 0.92-0.1 0.95-0.14 0.97-0.16 1.01-0.2 1.02-0.23 1.03-0.27 1.05-0.3 1.06-0.35 1.07-0.39 1.07-0.44 1.06-0.24 0.53-0.25 0.53c-2.98 6.12-7.26 9.36-7.76 9.36-0.3 0-0.5-0.19-0.5-0.49 0-0.15 0-0.25 0.93-1.15 4.89-4.92 7.74-12.85 7.74-23.27 0-8.51-1.85-17.28-8.03-23.56-0.64-0.59-0.64-0.7-0.64-0.84 0-0.3 0.2-0.5 0.5-0.5 0.5 0 4.97 3.39 7.92 9.71 2.53 5.47 3.12 11 3.12 15.19z"/></g>
   </g>
  </g>
  <g fill="none" stroke-linecap="square">
   <path d="m374.17 478.99c-5.1086-0.60398-10.217-1.4262-15.326-2.6254-5.1086-1.1992-10.217-2.7798-15.326-4.9303-5.1086-2.1505-10.217-4.8798-15.326-8.3463-5.1086-3.4665-10.217-7.6819-15.326-12.675-5.1086-4.9928-10.217-10.773-15.326-17.137-5.1086-6.3637-10.217-13.313-15.326-20.37-5.1086-7.0565-10.217-14.21-15.326-20.787-5.1086-6.5765-10.217-12.556-15.326-17.268-5.1086-4.7121-10.217-8.1344-15.326-9.8519-5.1086-1.7175-10.217-1.7142-15.326 0-5.1086 1.7142-10.217 5.1423-15.326 9.8519-5.1086 4.7096-10.217 10.692-15.326 17.268-5.1086 6.5753-10.217 13.73-15.326 20.787-5.1086 7.0566-10.217 14.005-15.326 20.37-5.1086 6.3648-10.217 12.143-15.326 17.137-5.1086 4.9944-10.217 9.2068-15.326 12.675s-10.217 6.1947-15.326 8.3463-10.217 3.7304-15.326 4.9303c-5.1086 1.2-10.217 2.0214-15.326 2.6254" stroke="#00f" stroke-width="1.5495" title="exp(-x*x)"/>
   <path d="m370.86 480.25c-9.3744 0.63059-41.128-2.8377-51.38-7.3697-8.2336-3.6397-16.097-9.123-19.815-12.995-3.4943-3.6396-9.3797-11.839-12.39-18.366-3.0105-6.5267-6.021-14.464-9.0314-23.864-3.0105-9.4005-6.021-20.284-9.0315-32.265-3.0105-11.982-6.021-25.066-9.0314-38.352-3.0105-13.286-6.021-26.755-9.0314-39.138-3.0105-12.382-6.021-23.64-9.0314-32.511-3.0105-8.872-6.021-15.315-9.0314-18.549s-6.021-3.2274-9.0314 0c-3.0105 3.2274-6.021 9.682-9.0314 18.549-3.0105 8.8672-6.021 20.131-9.0314 32.511-3.0105 12.38-6.021 25.851-9.0314 39.138-3.0105 13.286-6.021 26.368-9.0314 38.352-3.0105 11.984-6.021 22.862-9.0315 32.265-3.0105 9.4034-6.0854 17.305-9.0314 23.864-3.464 7.712-7.9962 14.962-16.633 21.902-8.3604 6.7176-6.4188 6.5725-23.678 11.962-22.63 7.0671-40.264 3.7298-43.275 4.8669" stroke="#ff5f00" stroke-width="1.6322" title="exp(-x*x)"/>
  </g>
  <path d="m106.51 745.75c9.3744 0.63059 41.128-2.8377 51.38-7.3697 8.2336-3.6397 16.097-9.123 19.815-12.995 3.4943-3.6396 9.3797-11.839 12.39-18.366 3.0105-6.5267 6.021-14.464 9.0314-23.864 3.0105-9.4005 6.021-20.284 9.0315-32.265 3.0105-11.982 6.021-25.066 9.0314-38.352 3.0105-13.286 6.021-26.755 9.0314-39.138 3.0105-12.382 6.021-23.64 9.0314-32.511 3.0105-8.872 6.021-15.315 9.0314-18.549s6.021-3.2274 9.0314 0c3.0105 3.2274 6.021 9.682 9.0314 18.549 3.0105 8.8672 6.021 20.131 9.0314 32.511 3.0105 12.38 6.021 25.851 9.0314 39.138 3.0105 13.286 6.021 26.368 9.0314 38.352 3.0105 11.984 6.021 22.862 9.0315 32.265 3.0105 9.4034 6.021 17.335 9.0314 23.864 3.0105 6.5295 6.021 11.663 9.0315 15.714 3.0105 4.0511 6.021 7.0235 9.0314 9.2828 3.0105 2.2593 6.021 3.8059 9.0314 4.9431" fill="none" stroke="#00f" stroke-linecap="square" stroke-width="1.6322" title="exp(-x*x)"/>
  <g transform="translate(103.49 -3.3838)">
   <g transform="translate(.12137 -.2179)">
    <path transform="translate(56.762 325.4)" d="m438.24 19.406c-1.6871 6.1312-3.3742 11.864-5.0614 17.134-3.0105 9.4034-6.0854 17.305-9.0314 23.864-3.464 7.712-7.9962 14.962-16.633 21.902-8.3604 6.7176-6.4188 6.5725-23.678 11.962-22.63 7.0671-43.569 2.4661-46.58 3.6032" fill="none" stroke="#ff5f00" stroke-linecap="square" stroke-width="1.6322"/>
   </g>
   <path transform="translate(56.762 325.4)" d="m438.36 19.188c-3.0499 4.1388-6.0999 8.3869-9.1498 12.6-5.1086 7.0566-10.217 14.005-15.326 20.37-5.1086 6.3648-10.217 12.143-15.326 17.137-5.1086 4.9944-10.217 9.2068-15.326 12.675s-10.217 6.1947-15.326 8.3463-10.217 3.7304-15.326 4.9303c-5.1086 1.2-10.217 2.0214-15.326 2.6254" fill="none" stroke="#00f" stroke-linecap="square" stroke-width="1.5495"/>
  </g>
  <path d="m664.55 344.65c-1.3091-4.7632-2.6182-9.7656-3.9273-14.976-3.0105-11.982-6.021-25.066-9.0314-38.352-3.0105-13.286-6.021-26.755-9.0314-39.138-3.0105-12.382-6.021-23.64-9.0314-32.511-3.0105-8.872-6.021-15.315-9.0314-18.549s-6.021-3.2274-9.0314 0c-3.0105 3.2274-6.021 9.682-9.0314 18.549-3.0105 8.8672-6.021 20.131-9.0314 32.511-3.0105 12.38-6.021 25.851-9.0314 39.138-3.0105 13.286-6.021 26.368-9.0314 38.352-1.3234 5.2678-2.6467 10.322-3.9701 15.131" fill="none" stroke="#ff5f00" stroke-linecap="square" stroke-width="1.6322"/>
  <path d="m664.47 344.59c-2.0592-2.7943-4.1184-5.539-6.1775-8.1899-5.1086-6.5765-10.217-12.556-15.326-17.268-5.1086-4.7121-10.217-8.1344-15.326-9.8519-5.1086-1.7175-10.217-1.7142-15.326 0-5.1086 1.7142-10.217 5.1423-15.326 9.8519-5.1086 4.7096-10.217 10.692-15.326 17.268-2.0586 2.6497-4.1173 5.3935-6.1759 8.1871" fill="none" stroke="#00f" stroke-linecap="square" stroke-width="1.5495"/>
  <g transform="translate(88.776 7.7187)" fill="none" stroke-linecap="square">
   <path transform="translate(56.762 325.4)" d="m628.45 97.871c-9.3744 0.63059-44.433-1.574-54.685-6.106-8.2336-3.6397-16.097-9.123-19.815-12.995-3.4943-3.6396-9.3797-11.839-12.39-18.366-3.0105-6.5267-6.021-14.464-9.0314-23.864-1.7014-5.3128-3.4028-11.099-5.1042-17.29" stroke="#ff5f00" stroke-width="1.6322"/>
   <path transform="translate(56.762 325.4)" d="m628.45 97.871c-5.1086-0.60398-10.217-1.4262-15.326-2.6254-5.1086-1.1992-10.217-2.7798-15.326-4.9303-5.1086-2.1505-10.217-4.8798-15.326-8.3463-5.1086-3.4665-10.217-7.6819-15.326-12.675-5.1086-4.9928-10.217-10.773-15.326-17.137-5.1086-6.3637-10.217-13.313-15.326-20.37-3.0494-4.2121-6.0219-8.3995-9.0713-12.538" stroke="#00f" stroke-width="1.5495"/>
  </g>
  <path d="m599.95 370.42 16.745 9.668" fill="none" stroke="#000" stroke-width="1px"/>
 </g>
</svg>
